<?xml version="1.0" encoding="UTF-8" standalone="no"?>
<svg xmlns:ffdec="https://www.free-decompiler.com/flash" xmlns:xlink="http://www.w3.org/1999/xlink" ffdec:objectType="frame" height="108.55px" width="94.8px" xmlns="http://www.w3.org/2000/svg">
  <g transform="matrix(1.0, 0.0, 0.0, 1.0, 36.55, 78.5)">
    <use ffdec:characterId="196" height="83.8" transform="matrix(1.0, 0.0, 0.0, 1.0, 0.0, 0.0)" width="63.4" xlink:href="#shape0"/>
    </g>
  <defs>
    <g id="shape0">
      <path d="M-0.95 -51.55 L-0.9 -52.2 Q-0.65 -54.25 0.35 -54.25 1.3 -54.25 7.1 -50.45 L7.25 -49.85 Q4.15 -51.5 3.25 -51.5 0.85 -51.5 0.25 -50.55 -0.25 -49.7 -0.25 -46.0 -0.25 -43.1 0.25 -42.3 -0.9 -38.65 -1.25 -36.3 L-3.05 -40.8 -3.05 -41.25 -3.0 -41.7 -3.0 -42.05 -3.0 -45.1 -2.85 -45.9 Q-1.5 -48.45 -1.0 -51.25 L-0.95 -51.55 M18.4 -42.0 Q19.65 -39.1 21.2 -36.85 16.55 -41.0 8.55 -41.0 1.15 -41.0 1.15 -32.1 L0.9 -17.55 1.0 -15.75 Q-0.45 -19.85 -0.45 -21.5 -0.45 -23.55 0.0 -25.1 0.0 -25.85 -0.55 -26.9 -1.15 -27.9 -1.15 -28.85 L-0.75 -31.9 Q-0.75 -34.6 -1.1 -35.85 L-1.15 -36.1 -1.15 -36.15 0.9 -40.5 2.25 -41.95 Q3.4 -42.9 3.95 -42.9 4.65 -42.9 6.3 -41.75 7.0 -41.75 8.35 -42.8 9.65 -43.9 10.9 -43.9 12.55 -43.9 13.85 -42.85 15.15 -41.85 15.8 -41.85 L17.6 -42.15 18.4 -42.0 M27.35 -18.0 L27.8 -17.45 28.2 -16.95 15.8 -18.15 Q8.55 -18.15 4.65 -12.25 0.75 -6.35 0.7 -1.4 L0.7 -1.05 0.4 5.15 Q0.0 6.0 -0.8 6.0 L-0.85 6.0 -0.95 -4.4 -1.05 -4.4 -1.05 -6.75 -0.95 -7.1 Q-0.65 -8.2 -0.45 -10.4 -0.2 -11.15 1.35 -13.0 L2.65 -16.35 Q3.6 -18.85 4.7 -18.85 L7.9 -18.55 Q9.0 -18.55 10.1 -20.25 11.15 -22.0 13.5 -22.0 14.45 -22.0 17.05 -20.85 17.9 -20.85 18.8 -21.45 19.75 -22.1 20.55 -22.1 21.4 -22.1 23.65 -20.45 L27.35 -18.0" fill="#5f9625" fill-rule="evenodd" stroke="none"/>
      <path d="M-2.75 -1.65 Q-3.25 -10.95 -6.45 -18.7 -12.2 -32.55 -24.7 -32.55 L-30.7 -32.45 Q-33.75 -32.05 -34.15 -30.25 L-34.05 -31.9 Q-26.0 -35.55 -22.5 -35.55 -21.05 -35.55 -20.25 -34.7 -18.95 -33.35 -17.35 -32.55 L-15.0 -32.3 Q-13.35 -32.35 -11.9 -31.5 -9.4 -28.0 -8.25 -27.65 -7.0 -27.3 -6.1 -24.7 L-6.05 -24.5 -5.85 -23.3 Q-4.75 -17.55 -3.8 -14.75 L-3.75 -14.5 -3.5 -14.45 -2.4 -11.45 -0.95 -7.1 -1.05 -6.75 -1.05 -4.4 -0.95 -4.4 -0.85 6.0 Q-2.25 6.0 -2.75 4.85 -2.6 1.5 -2.75 -1.65" fill="#3d6017" fill-rule="evenodd" stroke="none"/>
      <path d="M-34.05 -31.9 Q-33.4 -34.3 -30.05 -36.35 -26.0 -38.9 -21.9 -38.9 -11.05 -38.9 -7.85 -31.1 -7.2 -29.55 -6.15 -25.05 L-6.15 -25.0 -6.1 -24.7 Q-7.0 -27.3 -8.25 -27.65 -9.4 -28.0 -11.9 -31.5 -13.35 -32.35 -15.0 -32.3 L-17.35 -32.55 Q-18.95 -33.35 -20.25 -34.7 -21.05 -35.55 -22.5 -35.55 -26.0 -35.55 -34.05 -31.9" fill="#5a8e24" fill-rule="evenodd" stroke="none"/>
      <path d="M1.0 -15.75 Q3.95 -22.3 5.5 -23.2 7.1 -24.15 13.35 -24.35 19.6 -24.6 22.2 -23.15 23.8 -22.2 27.35 -18.0 L23.65 -20.45 Q21.4 -22.1 20.55 -22.1 19.75 -22.1 18.8 -21.45 17.9 -20.85 17.05 -20.85 14.45 -22.0 13.5 -22.0 11.15 -22.0 10.1 -20.25 9.0 -18.55 7.9 -18.55 L4.7 -18.85 Q3.6 -18.85 2.65 -16.35 L1.35 -13.0 Q-0.2 -11.15 -0.45 -10.4 -0.65 -8.2 -0.95 -7.1 L-2.4 -11.45 -3.5 -14.45 Q-1.8 -14.3 -1.8 -14.75 -1.8 -24.9 -2.05 -28.3 -2.5 -34.85 -4.15 -38.65 -8.05 -47.55 -22.5 -47.55 L-25.5 -46.75 Q-25.2 -47.75 -22.9 -48.7 L-19.8 -49.55 Q-18.75 -49.55 -17.9 -49.1 -17.0 -48.65 -16.3 -48.65 L-13.25 -49.15 Q-12.05 -49.15 -11.45 -48.2 -10.6 -46.75 -8.65 -45.8 -6.75 -45.8 -5.95 -45.1 L-4.25 -44.0 -3.05 -41.8 -3.05 -41.25 -3.05 -40.8 -1.25 -36.3 -1.2 -36.2 -1.15 -36.1 -1.1 -35.85 Q-0.75 -34.6 -0.75 -31.9 L-1.15 -28.85 Q-1.15 -27.9 -0.55 -26.9 0.0 -25.85 0.0 -25.1 -0.45 -23.55 -0.45 -21.5 -0.45 -19.85 1.0 -15.75" fill="#6aaa2b" fill-rule="evenodd" stroke="none"/>
      <path d="M0.25 -42.3 L0.4 -42.15 0.65 -42.55 Q1.65 -43.95 4.3 -45.15 7.45 -46.6 10.85 -46.6 15.9 -46.6 17.7 -43.65 L18.4 -42.0 17.6 -42.15 15.8 -41.85 Q15.15 -41.85 13.85 -42.85 12.55 -43.9 10.9 -43.9 9.65 -43.9 8.35 -42.8 7.0 -41.75 6.3 -41.75 4.65 -42.9 3.95 -42.9 3.4 -42.9 2.25 -41.95 L0.9 -40.5 -1.15 -36.15 -1.2 -36.2 -1.25 -36.3 Q-0.9 -38.65 0.25 -42.3 M-25.5 -46.75 L-26.0 -46.6 Q-24.7 -51.3 -16.0 -51.3 -9.95 -51.35 -6.95 -48.25 -6.15 -47.45 -4.25 -44.0 L-5.95 -45.1 Q-6.75 -45.8 -8.65 -45.8 -10.6 -46.75 -11.45 -48.2 -12.05 -49.15 -13.25 -49.15 L-16.3 -48.65 Q-17.0 -48.65 -17.9 -49.1 -18.75 -49.55 -19.8 -49.55 L-22.9 -48.7 Q-25.2 -47.75 -25.5 -46.75" fill="#8dd147" fill-rule="evenodd" stroke="none"/>
      <path d="M-11.0 -56.55 L-9.4 -58.05 Q-8.35 -58.85 -7.8 -58.85 -6.7 -58.85 -5.7 -57.55 L-4.7 -55.95 -2.2 -55.5 Q-1.35 -55.2 -1.35 -54.1 L-1.6 -53.25 -0.95 -51.55 -1.0 -51.25 Q-1.5 -48.45 -2.85 -45.9 L-3.0 -45.1 Q-3.1 -49.9 -3.55 -51.65 -5.1 -57.05 -11.0 -56.0 L-11.0 -56.4 -11.0 -56.55" fill="#77be30" fill-rule="evenodd" stroke="none"/>
      <path d="M-0.85 -56.15 L-0.8 -56.15 -0.5 -56.35 0.55 -56.4 Q2.95 -56.4 5.05 -54.05 6.55 -52.3 7.1 -50.45 1.3 -54.25 0.35 -54.25 -0.65 -54.25 -0.9 -52.2 L-0.95 -51.55 -1.6 -53.25 -1.35 -54.1 Q-1.35 -55.2 -2.2 -55.5 L-4.7 -55.95 -5.7 -57.55 Q-6.7 -58.85 -7.8 -58.85 -8.35 -58.85 -9.4 -58.05 L-11.0 -56.55 Q-10.75 -61.6 -7.85 -61.65 -4.9 -61.75 -3.9 -60.6 -3.2 -59.85 -2.85 -58.9 L-2.55 -58.0 -2.45 -56.7 -2.4 -58.0 Q-2.0 -55.95 -0.85 -56.15" fill="#9ed863" fill-rule="evenodd" stroke="none"/>
      <path d="M-0.85 -56.15 Q-2.0 -55.95 -2.4 -58.0 L-2.3 -70.0 Q-0.4 -70.4 -0.4 -69.0 -0.4 -63.75 -0.85 -56.2 L-0.85 -56.15" fill="#e7dd87" fill-rule="evenodd" stroke="none"/>
      <path d="M0.7 -1.05 Q7.65 -1.4 13.95 -0.8 26.6 0.35 26.6 5.1 26.6 8.6 24.2 8.8 L16.95 8.55 Q1.0 9.35 0.55 8.6 L2.05 8.55 Q-2.8 8.25 -15.0 8.55 -24.75 8.05 -24.75 3.0 -24.75 1.4 -19.8 0.35 L-13.05 -0.5 -2.75 -1.65 Q-2.6 1.5 -2.75 4.85 -2.25 6.0 -0.85 6.0 L-0.8 6.0 Q0.0 6.0 0.4 5.15 L0.7 -1.05" fill="#000000" fill-opacity="0.4509804" fill-rule="evenodd" stroke="none"/>
      <path d="M7.1 -50.45 Q6.55 -52.3 5.05 -54.05 2.95 -56.4 0.55 -56.4 L-0.5 -56.35 -0.8 -56.15 -0.85 -56.15 -0.85 -56.2 -0.7 -56.35 -0.5 -56.35 M-2.4 -58.0 L-2.45 -56.7 -2.55 -58.0 -2.85 -58.9 Q-3.2 -59.85 -3.9 -60.6 -4.9 -61.75 -7.85 -61.65 -10.75 -61.6 -11.0 -56.55 L-11.0 -56.4 -11.0 -56.0 Q-5.1 -57.05 -3.55 -51.65 -3.1 -49.9 -3.0 -45.1 L-3.0 -42.05 -3.0 -41.7 -3.05 -41.25 M7.1 -50.45 L7.25 -49.85 Q4.15 -51.5 3.25 -51.5 0.85 -51.5 0.25 -50.55 -0.25 -49.7 -0.25 -46.0 -0.25 -43.1 0.25 -42.3 L0.4 -42.15 0.65 -42.55 Q1.65 -43.95 4.3 -45.15 7.45 -46.6 10.85 -46.6 15.9 -46.6 17.7 -43.65 L18.4 -42.0 Q19.65 -39.1 21.2 -36.85 L22.0 -36.05 21.75 -36.05 21.2 -36.85 Q16.55 -41.0 8.55 -41.0 1.15 -41.0 1.15 -32.1 L0.9 -17.55 1.0 -15.75 Q3.95 -22.3 5.5 -23.2 7.1 -24.15 13.35 -24.35 19.6 -24.6 22.2 -23.15 23.8 -22.2 27.35 -18.0 M27.8 -17.45 L28.2 -16.95 15.8 -18.15 Q8.55 -18.15 4.65 -12.25 0.75 -6.35 0.7 -1.4 L0.7 -1.05 0.4 5.15 Q0.0 6.0 -0.8 6.0 L-0.85 6.0 Q-2.25 6.0 -2.75 4.85 -2.6 1.5 -2.75 -1.65 -3.25 -10.95 -6.45 -18.7 -12.2 -32.55 -24.7 -32.55 L-30.7 -32.45 Q-33.75 -32.05 -34.15 -30.25 L-34.05 -31.9 Q-33.4 -34.3 -30.05 -36.35 -26.0 -38.9 -21.9 -38.9 -11.05 -38.9 -7.85 -31.1 -7.2 -29.55 -6.15 -25.05 L-6.05 -24.5 -5.85 -23.3 Q-4.75 -17.55 -3.8 -14.75 L-3.75 -14.5 -3.5 -14.45 Q-1.8 -14.3 -1.8 -14.75 -1.8 -24.9 -2.05 -28.3 -2.5 -34.85 -4.15 -38.65 -8.05 -47.55 -22.5 -47.55 L-25.5 -46.75 -26.0 -46.6 Q-24.7 -51.3 -16.0 -51.3 -9.95 -51.35 -6.95 -48.25 -6.15 -47.45 -4.25 -44.0 L-3.05 -41.8 -3.0 -41.7 M-2.4 -58.0 L-2.3 -70.0 Q-0.4 -70.4 -0.4 -69.0 -0.4 -63.75 -0.85 -56.2 M-6.1 -24.7 L-6.15 -25.0 M-6.1 -24.7 L-6.05 -24.5" fill="none" stroke="#000000" stroke-linecap="round" stroke-linejoin="round" stroke-width="1.0"/>
      <path d="M13.95 -32.45 L14.0 -30.2 Q14.0 -27.05 12.85 -24.8 11.8 -22.7 8.25 -18.5 6.45 -16.35 3.6 -15.85 L0.2 -15.55 0.2 -15.6 Q2.15 -19.85 6.15 -20.75 L5.85 -23.3 Q5.85 -25.05 7.3 -26.1 L10.2 -28.05 Q10.85 -28.6 11.9 -30.9 L13.95 -32.45 M0.2 -15.6 L0.2 -15.55 0.2 -15.6" fill="#136423" fill-rule="evenodd" stroke="none"/>
      <path d="M0.2 -15.6 Q0.15 -18.0 0.4 -19.2 1.2 -21.85 2.25 -22.5 4.3 -23.7 4.05 -26.25 4.55 -26.9 6.45 -28.0 8.15 -29.05 8.7 -30.05 9.2 -31.15 12.05 -33.25 L12.5 -33.35 13.85 -33.45 13.9 -33.25 13.95 -32.85 13.95 -32.45 11.9 -30.9 Q10.85 -28.6 10.2 -28.05 L7.3 -26.1 Q5.85 -25.05 5.85 -23.3 L6.15 -20.75 Q2.15 -19.85 0.2 -15.6 L0.2 -15.55 -0.05 -15.5 -0.1 -15.5 -0.1 -15.7 Q-0.1 -16.3 0.2 -15.6" fill="#1e9d37" fill-rule="evenodd" stroke="none"/>
      <path d="M0.2 -15.6 L-0.05 -19.85 Q0.25 -23.5 1.8 -25.95 4.75 -30.65 6.6 -31.5 9.65 -32.9 12.05 -33.25 9.2 -31.15 8.7 -30.05 8.15 -29.05 6.45 -28.0 4.55 -26.9 4.05 -26.25 4.3 -23.7 2.25 -22.5 1.2 -21.85 0.4 -19.2 0.15 -18.0 0.2 -15.6" fill="#27cf48" fill-rule="evenodd" stroke="none"/>
      <path d="M0.0 -73.05 Q-0.9 -73.05 -0.9 -73.95 -0.9 -74.85 0.0 -74.85 0.85 -74.85 0.8 -73.95 0.8 -73.05 0.0 -73.05 M1.7 -71.7 Q1.7 -72.6 2.6 -72.6 3.35 -72.6 3.45 -71.7 3.45 -70.8 2.6 -70.8 1.65 -70.8 1.7 -71.7 M0.45 -67.9 Q0.45 -68.75 1.35 -68.75 2.25 -68.75 2.25 -67.95 2.25 -66.95 1.35 -66.95 0.45 -66.95 0.45 -67.9 M2.25 -64.8 Q2.25 -63.9 1.35 -63.9 0.45 -63.9 0.45 -64.8 0.45 -65.6 1.35 -65.6 2.25 -65.6 2.25 -64.8 M21.15 -31.85 L19.7 -33.35 Q18.55 -34.2 17.9 -34.2 L16.2 -33.95 Q18.9 -33.35 20.1 -27.75 L20.0 -27.65 Q19.25 -28.55 18.95 -30.8 18.25 -32.85 14.6 -33.75 L14.55 -33.9 14.55 -33.6 14.3 -33.6 14.1 -34.25 13.7 -34.25 13.65 -34.4 13.85 -35.0 Q13.3 -35.75 11.1 -36.35 L11.0 -36.6 11.25 -36.75 Q13.3 -36.75 14.1 -35.65 L14.25 -36.1 Q14.25 -36.5 12.15 -39.3 L12.3 -39.45 Q14.55 -37.3 14.55 -36.0 L14.45 -34.95 14.55 -34.65 14.55 -33.9 14.6 -34.05 14.7 -34.05 14.7 -34.8 15.75 -36.0 Q16.8 -36.9 17.25 -36.9 L18.95 -36.75 18.9 -36.5 Q16.15 -36.2 15.4 -35.55 15.0 -35.2 15.0 -34.1 L15.9 -34.65 Q20.7 -34.65 21.45 -32.0 L21.15 -31.85 M-2.25 -73.95 Q-1.35 -73.95 -1.35 -73.1 -1.35 -72.2 -2.25 -72.2 -3.15 -72.2 -3.15 -73.1 -3.15 -73.95 -2.25 -73.95 M-4.5 -69.35 Q-5.4 -69.35 -5.4 -70.25 -5.4 -71.1 -4.4 -71.1 -3.65 -71.1 -3.6 -70.3 -3.6 -69.35 -4.5 -69.35 M-4.35 -66.3 Q-5.25 -66.3 -5.25 -67.2 -5.25 -68.1 -4.35 -68.1 -3.6 -68.1 -3.45 -67.2 -3.45 -66.3 -4.35 -66.3 M-3.6 -66.3 Q-2.75 -66.3 -2.75 -65.45 -2.75 -64.55 -3.6 -64.55 -4.5 -64.55 -4.5 -65.45 -4.5 -66.3 -3.6 -66.3" fill="#ffffff" fill-rule="evenodd" stroke="none"/>
      <path d="M12.05 -33.25 Q9.65 -32.9 6.6 -31.5 4.75 -30.65 1.8 -25.95 0.25 -23.5 -0.05 -19.85 L0.2 -15.6 M12.5 -33.35 L13.85 -33.45 13.9 -33.25 M13.95 -32.85 L13.95 -32.45 14.0 -30.2 Q14.0 -27.05 12.85 -24.8 11.8 -22.7 8.25 -18.5 6.45 -16.35 3.6 -15.85 L0.2 -15.55 M-0.05 -15.5 L-0.1 -15.5 -0.1 -15.7" fill="none" stroke="#000000" stroke-linecap="round" stroke-linejoin="round" stroke-width="1.0"/>
      <path d="M13.9 -33.25 L13.95 -32.85 M0.2 -15.55 L-0.05 -15.5 M-0.1 -15.7 Q-0.1 -16.3 0.2 -15.6 L0.2 -15.55 0.2 -15.6" ffdec:has-small-stroke="true" ffdec:original-stroke-width="0.05" fill="none" stroke="#000000" stroke-linecap="round" stroke-linejoin="round" stroke-width="1.0"/>
    </g>
    <g id="sprite0">
      <use ffdec:characterId="121" height="11.25" transform="matrix(1.0, 0.0, 0.0, 1.0, 0.0, 0.0)" width="20.75" xlink:href="#shape1"/>
    </g>
    <g id="shape1">
      <path d="M4.0 -5.05 Q4.8 -4.4 4.8 -2.6 L4.8 -1.3 3.35 0.2 3.2 0.45 Q3.3 -0.3 2.7 -1.2 L1.2 -2.3 1.55 -2.85 Q2.8 -4.6 3.5 -4.9 L4.0 -5.05 M-3.6 -0.9 Q-1.9 0.45 -1.65 1.8 L-3.45 1.85 -4.95 2.2 Q-5.4 0.7 -7.05 0.0 -5.3 -1.0 -3.6 -0.9" fill="#e3bb1c" fill-rule="evenodd" stroke="none"/>
      <path d="M4.8 -1.3 L4.8 -2.6 Q4.8 -4.4 4.0 -5.05 L5.3 -5.1 8.05 -4.3 Q9.9 -3.4 9.9 -2.25 9.9 -1.25 9.0 -1.25 L5.85 -1.65 Q5.35 -1.65 4.8 -1.3 M1.2 -2.3 L2.7 -1.2 Q3.3 -0.3 3.2 0.45 1.9 2.05 -0.25 2.05 L-1.65 1.8 Q-1.9 0.45 -3.6 -0.9 -0.75 -0.7 -0.2 -0.9 L1.2 -2.3 M-9.7 4.2 L-9.85 3.8 Q-9.8 1.75 -7.75 0.4 L-7.05 0.0 Q-5.4 0.7 -4.95 2.2 L-6.55 3.35 -7.5 4.55 Q-7.75 4.95 -8.55 5.1 -9.4 5.2 -9.7 4.2" fill="#ffffff" fill-rule="evenodd" stroke="none"/>
      <path d="M4.0 -5.05 L3.5 -4.9 Q2.8 -4.6 1.55 -2.85 L1.2 -2.3 -0.2 -0.9 Q-0.75 -0.7 -3.6 -0.9 -5.3 -1.0 -7.05 0.0 L-7.75 0.4 Q-9.8 1.75 -9.85 3.8 L-9.85 3.85 -9.7 4.2 -9.85 3.8 M3.2 0.45 L3.35 0.2 4.8 -1.3 Q5.35 -1.65 5.85 -1.65 L9.0 -1.25 Q9.9 -1.25 9.9 -2.25 9.9 -3.4 8.05 -4.3 L5.3 -5.1 4.0 -5.05 M-1.65 1.8 L-0.25 2.05 Q1.9 2.05 3.2 0.45 M-4.95 2.2 L-3.45 1.85 -1.65 1.8 M-9.7 4.2 Q-9.4 5.2 -8.55 5.1 -7.75 4.95 -7.5 4.55 L-6.55 3.35 -4.95 2.2" ffdec:has-small-stroke="true" ffdec:original-stroke-width="1.0" fill="none" stroke="#000000" stroke-linecap="round" stroke-linejoin="round" stroke-width="1.0015732645338746"/>
    </g>
  </defs>
</svg>
