<?xml version="1.0" encoding="UTF-8" standalone="no"?>
<svg xmlns:ffdec="https://www.free-decompiler.com/flash" xmlns:xlink="http://www.w3.org/1999/xlink" ffdec:objectType="frame" height="52.25px" width="86.95px" xmlns="http://www.w3.org/2000/svg">
  <g transform="matrix(1.0, 0.0, 0.0, 1.0, 41.0, 33.35)">
    <use ffdec:characterId="186" height="52.25" transform="matrix(1.0, 0.0, 0.0, 1.0, 0.0, 0.0)" width="82.0" xlink:href="#shape0"/>
  </g>
  <defs>
    <g id="shape0">
      <path d="M8.1 4.35 L24.65 4.35 Q41.0 6.95 41.0 10.55 41.0 11.9 31.35 16.2 26.25 19.3 11.3 18.85 L10.5 18.8 1.45 18.0 -12.5 14.3 -16.9 13.95 Q-20.3 14.1 -23.55 13.8 -28.5 13.35 -30.1 12.3 -31.05 11.65 -31.05 10.25 -31.05 8.9 -30.1 8.65 -28.05 8.1 -27.15 7.5 -23.75 4.35 -21.65 3.45 L-9.45 3.65 Q-12.1 4.05 -13.25 6.15 L-13.6 6.85 -13.65 6.95 -17.4 6.95 -20.55 6.95 Q-20.15 8.1 -21.45 8.45 L-18.05 11.2 Q-15.15 13.2 -12.1 13.2 -5.6 12.85 -1.3 12.95 L-1.2 12.95 1.8 13.05 2.25 13.15 4.0 13.85 4.6 14.25 Q6.1 15.3 6.75 15.3 L14.2 15.3 21.45 15.3 Q26.15 14.75 26.15 11.75 L26.2 11.7 26.15 11.65 Q25.8 9.8 25.8 9.0 25.15 8.2 22.6 7.35 20.15 6.6 18.55 6.6 15.85 6.6 14.75 8.25 L14.65 8.2 13.4 7.95 13.1 7.9 Q11.25 7.35 10.05 6.2 L8.1 4.35 M9.85 8.45 Q6.6 8.45 5.45 9.65 L4.0 10.5 3.6 10.5 3.6 10.45 Q2.95 8.65 1.9 8.35 L-5.15 6.6 -8.85 6.5 -9.5 6.45 Q-8.95 5.7 -6.95 5.75 L-3.5 5.75 Q-3.35 5.75 -0.25 3.95 L3.6 4.8 Q4.65 4.8 6.1 6.15 7.25 7.3 9.4 8.25 L9.85 8.45" fill="#000000" fill-opacity="0.4509804" fill-rule="evenodd" stroke="none"/>
      <path d="M4.0 13.85 L2.25 13.15 1.8 13.05 -1.2 12.95 -1.3 12.95 Q-1.55 12.35 -2.5 11.5 -3.8 10.35 -4.65 10.35 -7.05 10.25 -17.4 6.95 L-13.65 6.95 -13.6 6.85 -13.25 6.15 -12.2 6.5 -9.85 7.1 Q-9.1 7.1 -8.85 6.5 L-5.15 6.6 1.9 8.35 Q2.95 8.65 3.6 10.45 L3.6 10.5 4.0 10.5 5.45 9.65 Q6.6 8.45 9.85 8.45 L9.8 8.3 11.7 8.75 Q12.15 8.75 13.1 7.9 L13.4 7.95 14.65 8.2 14.75 8.25 Q15.85 6.6 18.55 6.6 20.15 6.6 22.6 7.35 25.15 8.2 25.8 9.0 25.8 9.8 26.15 11.65 21.5 10.25 18.95 10.35 L18.8 10.35 15.25 11.1 12.3 11.85 Q8.35 11.85 4.0 13.85" fill="#be8763" fill-rule="evenodd" stroke="none"/>
      <path d="M26.15 11.75 Q26.15 14.75 21.45 15.3 L14.2 15.3 6.75 15.3 Q6.1 15.3 4.6 14.25 L4.0 13.85 Q8.35 11.85 12.3 11.85 L15.25 11.1 18.8 10.35 18.95 10.35 Q21.5 10.25 26.15 11.65 L26.15 11.75 M-1.3 12.95 Q-5.6 12.85 -12.1 13.2 -15.15 13.2 -18.05 11.2 L-21.45 8.45 Q-20.15 8.1 -20.55 6.95 L-17.4 6.95 Q-7.05 10.25 -4.65 10.35 -3.8 10.35 -2.5 11.5 -1.55 12.35 -1.3 12.95" fill="#8e5e3e" fill-rule="evenodd" stroke="none"/>
      <path d="M12.95 -4.25 Q12.95 -1.5 9.2 -1.5 7.8 -1.5 5.1 -2.45 2.35 -3.45 1.45 -3.45 -0.5 -3.45 -1.15 -2.8 0.2 -7.05 1.45 -7.05 L4.95 -5.85 Q8.0 -4.65 9.05 -4.65 L10.55 -4.95 Q11.15 -5.3 12.95 -4.25 M-7.4 -7.55 L-7.2 -7.0 -7.5 -7.65 -7.45 -7.6 -7.4 -7.55" fill="#5a8547" fill-rule="evenodd" stroke="none"/>
      <path d="M-0.65 -31.35 Q1.2 -31.35 2.65 -29.85 3.95 -28.45 3.95 -26.85 3.95 -22.4 -1.6 -20.6 L-5.45 -19.05 Q-7.2 -17.9 -7.2 -15.65 L-6.8 -13.2 -7.8 -10.5 -7.8 -9.65 -7.8 -9.0 -7.45 -7.65 -7.4 -7.55 -6.2 -6.3 Q-5.1 -5.15 -2.3 -5.15 -1.85 -5.15 -1.45 -6.25 -1.0 -7.75 0.15 -8.7 L2.75 -11.15 6.65 -13.4 Q14.75 -12.55 15.3 -12.15 L18.3 -9.85 Q20.35 -8.55 22.8 -9.15 24.0 -8.05 24.0 -7.35 24.0 -5.7 22.15 -5.7 20.75 -5.7 18.6 -7.0 L14.3 -9.65 Q12.05 -11.8 11.45 -11.85 L5.45 -11.7 4.45 -10.95 3.75 -10.05 3.75 -8.85 9.3 -8.85 Q12.2 -7.5 12.95 -4.25 11.15 -5.3 10.55 -4.95 L9.05 -4.65 Q8.0 -4.65 4.95 -5.85 L1.45 -7.05 Q0.2 -7.05 -1.15 -2.8 L-1.5 -1.95 Q-1.5 -1.4 -0.55 -0.25 L0.95 1.1 Q3.65 1.15 6.75 3.15 L7.8 4.05 8.1 4.35 10.05 6.2 Q11.25 7.35 13.1 7.9 12.15 8.75 11.7 8.75 L9.8 8.3 9.4 8.25 Q7.25 7.3 6.1 6.15 4.65 4.8 3.6 4.8 L-0.25 3.95 Q-3.35 5.75 -3.5 5.75 L-6.95 5.75 Q-8.95 5.7 -9.5 6.45 L-8.85 6.5 Q-9.1 7.1 -9.85 7.1 L-12.2 6.5 -13.25 6.15 Q-12.1 4.05 -9.45 3.65 L-7.65 3.55 -4.85 3.2 Q-3.65 2.55 -3.65 0.3 -3.65 -0.15 -6.4 -3.45 -9.25 -6.85 -10.2 -7.2 -13.65 -8.35 -16.5 -12.05 -18.8 -15.0 -22.8 -15.0 L-30.0 -14.3 -38.15 -14.7 Q-40.5 -15.1 -40.5 -17.6 L-40.4 -19.3 -39.95 -19.35 Q-39.1 -19.35 -37.95 -18.15 -36.8 -17.0 -36.15 -17.0 -33.65 -18.0 -32.2 -18.0 -30.3 -18.9 -28.6 -18.9 -27.35 -18.9 -25.05 -17.1 -22.75 -15.3 -21.15 -15.3 -20.15 -15.5 -19.6 -15.85 L-19.1 -15.55 -19.1 -15.75 -19.5 -19.45 Q-19.5 -24.55 -17.75 -25.25 L-16.75 -23.8 Q-16.05 -22.45 -16.05 -21.9 -18.0 -18.55 -18.0 -17.75 L-17.35 -15.9 Q-16.7 -14.5 -16.0 -14.4 L-13.75 -12.5 Q-12.2 -11.4 -11.2 -11.0 L-10.85 -10.9 -10.25 -10.8 Q-9.05 -10.8 -9.0 -13.35 L-8.95 -16.35 -8.95 -16.65 -8.95 -16.75 Q-8.15 -18.7 -7.5 -18.9 -6.4 -19.15 -6.2 -20.1 L-5.85 -22.35 Q-5.6 -23.1 -4.1 -23.85 L-2.15 -24.65 -0.05 -25.2 Q0.95 -25.75 0.95 -27.3 0.95 -30.2 -0.75 -31.15 L-0.65 -31.35 M9.7 -16.25 L9.75 -16.8 Q9.75 -18.45 7.9 -21.55 6.0 -24.65 6.0 -27.35 6.0 -29.85 8.8 -31.5 L9.6 -31.15 9.1 -30.1 Q8.45 -28.8 8.45 -27.85 8.45 -27.15 9.75 -25.55 L11.6 -22.85 11.6 -20.55 12.45 -18.45 Q12.45 -17.9 11.45 -17.05 10.5 -16.2 9.95 -16.2 L9.7 -16.25 M39.5 -16.95 Q39.25 -14.55 37.2 -12.15 34.9 -9.5 32.8 -9.5 31.75 -9.5 28.0 -11.9 24.75 -13.95 23.6 -15.0 22.5 -16.05 20.85 -16.15 18.75 -16.1 17.45 -16.2 L16.5 -16.35 16.1 -15.65 16.0 -15.5 14.6 -15.5 14.6 -16.2 Q15.05 -16.65 16.2 -17.05 L19.85 -17.85 25.4 -18.35 Q26.0 -18.35 28.05 -17.2 30.05 -16.05 34.55 -16.05 38.0 -16.05 39.5 -16.95 M-7.2 -7.0 L-7.4 -7.55 -7.45 -7.6 -7.5 -7.65 -7.2 -7.0" fill="#157327" fill-rule="evenodd" stroke="none"/>
      <path d="M6.65 -13.4 L8.2 -14.2 Q9.5 -15.0 9.7 -16.25 L9.95 -16.2 Q10.5 -16.2 11.45 -17.05 12.45 -17.9 12.45 -18.45 L11.6 -20.55 11.6 -22.85 9.75 -25.55 Q8.45 -27.15 8.45 -27.85 8.45 -28.8 9.1 -30.1 L9.6 -31.15 10.1 -32.15 10.4 -32.25 Q11.8 -32.85 13.2 -32.85 18.6 -32.85 18.6 -27.5 18.6 -22.0 12.95 -19.05 L12.95 -17.8 13.1 -17.75 14.45 -17.55 24.65 -21.0 Q33.15 -24.05 33.3 -22.7 35.65 -22.95 37.7 -20.75 39.5 -18.8 39.5 -17.6 L39.5 -16.95 Q38.0 -16.05 34.55 -16.05 30.05 -16.05 28.05 -17.2 26.0 -18.35 25.4 -18.35 L19.85 -17.85 16.2 -17.05 Q15.05 -16.65 14.6 -16.2 L14.6 -15.5 16.0 -15.5 15.45 -14.5 19.75 -11.5 22.8 -9.15 Q20.35 -8.55 18.3 -9.85 L15.3 -12.15 Q14.75 -12.55 6.65 -13.4 M-40.4 -19.3 Q-40.3 -20.2 -40.0 -20.5 -39.1 -21.65 -35.2 -21.65 L-27.6 -21.05 Q-24.55 -18.9 -19.6 -15.85 -20.15 -15.5 -21.15 -15.3 -22.75 -15.3 -25.05 -17.1 -27.35 -18.9 -28.6 -18.9 -30.3 -18.9 -32.2 -18.0 -33.65 -18.0 -36.15 -17.0 -36.8 -17.0 -37.95 -18.15 -39.1 -19.35 -39.95 -19.35 L-40.4 -19.3 M-17.75 -25.25 L-17.2 -25.35 Q-14.85 -25.35 -14.15 -23.85 -13.8 -23.05 -13.8 -20.4 -13.8 -16.95 -16.35 -16.5 L-16.35 -15.0 Q-16.2 -15.0 -16.2 -14.7 L-16.0 -14.4 Q-16.7 -14.5 -17.35 -15.9 L-18.0 -17.75 Q-18.0 -18.55 -16.05 -21.9 -16.05 -22.45 -16.75 -23.8 L-17.75 -25.25 M-9.15 -16.7 L-9.15 -20.7 Q-8.55 -25.45 -6.15 -28.4 -4.0 -31.1 -1.15 -31.3 L-0.75 -31.15 Q0.95 -30.2 0.95 -27.3 0.95 -25.75 -0.05 -25.2 L-2.15 -24.65 -4.1 -23.85 Q-5.6 -23.1 -5.85 -22.35 L-6.2 -20.1 Q-6.4 -19.15 -7.5 -18.9 -8.15 -18.7 -8.95 -16.75 L-9.0 -16.65 -9.15 -16.7" fill="#25c945" fill-rule="evenodd" stroke="none"/>
      <path d="M1.35 -15.5 Q2.25 -15.5 2.25 -14.55 2.25 -13.65 1.35 -13.65 0.35 -13.65 0.35 -14.6 0.35 -15.5 1.35 -15.5 M6.5 -14.4 Q5.55 -14.4 5.55 -15.35 5.55 -16.2 6.6 -16.2 7.3 -16.2 7.4 -15.35 7.4 -14.4 6.5 -14.4 M12.1 -6.9 L12.0 -7.4 Q12.0 -8.3 12.9 -8.3 13.7 -8.3 13.8 -7.4 13.8 -6.45 12.9 -6.45 12.25 -6.45 12.1 -6.9 M22.65 -21.95 Q22.65 -21.05 21.65 -21.05 20.75 -21.05 20.75 -22.05 20.75 -22.95 21.8 -22.95 22.65 -22.95 22.65 -21.95 M-21.95 -19.95 L-21.8 -19.5 Q-21.8 -18.5 -22.8 -18.5 -23.9 -18.5 -23.85 -19.45 -23.85 -20.4 -22.8 -20.4 -22.25 -20.4 -21.95 -19.95 M-9.3 -19.95 Q-9.3 -18.95 -10.2 -18.95 -11.15 -18.95 -11.15 -19.95 -11.15 -20.85 -10.2 -20.85 -9.7 -20.85 -9.45 -20.4 L-9.3 -19.95 M-11.25 -23.55 Q-12.3 -23.55 -12.2 -24.5 -12.2 -25.4 -11.25 -25.4 L-10.35 -24.55 Q-10.35 -23.55 -11.25 -23.55 M-6.45 -10.55 L-5.55 -9.65 Q-5.55 -8.7 -6.5 -8.7 -7.5 -8.7 -7.5 -9.7 -7.5 -10.55 -6.45 -10.55" fill="#ffffff" fill-rule="evenodd" stroke="none"/>
      <path d="M-0.65 -31.35 Q1.2 -31.35 2.65 -29.85 3.95 -28.45 3.95 -26.85 3.95 -22.4 -1.6 -20.6 L-5.45 -19.05 Q-7.2 -17.9 -7.2 -15.65 L-6.8 -13.2 -7.8 -10.5 -7.8 -9.65 M-7.8 -9.0 L-7.45 -7.65 -7.4 -7.55 -6.2 -6.3 Q-5.1 -5.15 -2.3 -5.15 -1.85 -5.15 -1.45 -6.25 -1.0 -7.75 0.15 -8.7 L2.75 -11.15 6.65 -13.4 8.2 -14.2 Q9.5 -15.0 9.7 -16.25 L9.75 -16.8 Q9.75 -18.45 7.9 -21.55 6.0 -24.65 6.0 -27.35 6.0 -29.85 8.8 -31.5 L10.1 -32.15 M10.4 -32.25 Q11.8 -32.85 13.2 -32.85 18.6 -32.85 18.6 -27.5 18.6 -22.0 12.95 -19.05 L12.95 -17.8 13.1 -17.75 14.45 -17.55 24.65 -21.0 Q33.15 -24.05 33.3 -22.7 35.65 -22.95 37.7 -20.75 39.5 -18.8 39.5 -17.6 L39.5 -16.95 Q39.25 -14.55 37.2 -12.15 34.9 -9.5 32.8 -9.5 31.75 -9.5 28.0 -11.9 24.75 -13.95 23.6 -15.0 22.5 -16.05 20.85 -16.15 18.75 -16.1 17.45 -16.2 L16.5 -16.35 16.1 -15.65 M16.0 -15.5 L15.45 -14.5 19.75 -11.5 22.8 -9.15 Q24.0 -8.05 24.0 -7.35 24.0 -5.7 22.15 -5.7 20.75 -5.7 18.6 -7.0 L14.3 -9.65 Q12.05 -11.8 11.45 -11.85 L5.45 -11.7 4.45 -10.95 3.75 -10.05 3.75 -8.85 9.3 -8.85 Q12.2 -7.5 12.95 -4.25 12.95 -1.5 9.2 -1.5 7.8 -1.5 5.1 -2.45 2.35 -3.45 1.45 -3.45 -0.5 -3.45 -1.15 -2.8 L-1.5 -1.95 Q-1.5 -1.4 -0.55 -0.25 L0.95 1.1 Q3.65 1.15 6.75 3.15 L7.8 4.05 M-9.45 3.65 L-7.65 3.55 -4.85 3.2 Q-3.65 2.55 -3.65 0.3 -3.65 -0.15 -6.4 -3.45 -9.25 -6.85 -10.2 -7.2 -13.65 -8.35 -16.5 -12.05 -18.8 -15.0 -22.8 -15.0 L-30.0 -14.3 -29.7 -14.3 -30.15 -14.3 -30.0 -14.3 -38.15 -14.7 Q-40.5 -15.1 -40.5 -17.6 L-40.4 -19.3 Q-40.3 -20.2 -40.0 -20.5 -39.1 -21.65 -35.2 -21.65 L-27.6 -21.05 Q-24.55 -18.9 -19.6 -15.85 L-19.1 -15.55 -19.1 -15.75 -19.5 -19.45 Q-19.5 -24.55 -17.75 -25.25 L-17.2 -25.35 Q-14.85 -25.35 -14.15 -23.85 -13.8 -23.05 -13.8 -20.4 -13.8 -16.95 -16.35 -16.5 L-16.35 -15.0 Q-16.2 -15.0 -16.2 -14.7 L-16.0 -14.4 -13.75 -12.5 Q-12.2 -11.4 -11.2 -11.0 M-10.85 -10.9 L-10.25 -10.8 Q-9.05 -10.8 -9.0 -13.35 L-8.95 -16.35 -9.15 -16.7 -9.15 -20.7 Q-8.55 -25.45 -6.15 -28.4 -4.0 -31.1 -1.15 -31.3 L-0.65 -31.35 M-8.95 -16.65 L-8.95 -16.35 M26.15 11.75 Q26.15 14.75 21.45 15.3 L14.2 15.3 6.75 15.3 Q6.1 15.3 4.6 14.25 L4.0 13.85 2.25 13.15 1.8 13.05 -1.2 12.95 M-1.3 12.95 Q-5.6 12.85 -12.1 13.2 -15.15 13.2 -18.05 11.2 L-21.45 8.45 Q-20.15 8.1 -20.55 6.95 L-17.4 6.95 -13.65 6.95 -13.6 6.85 -13.25 6.15 Q-12.1 4.05 -9.45 3.65 M26.15 11.65 L26.15 11.75 M26.15 11.65 Q25.8 9.8 25.8 9.0 25.15 8.2 22.6 7.35 20.15 6.6 18.55 6.6 15.85 6.6 14.75 8.25 L14.65 8.2 13.4 7.95 M9.85 8.45 Q6.6 8.45 5.45 9.65 L4.0 10.5 3.6 10.5 3.6 10.45 Q2.95 8.65 1.9 8.35 L-5.15 6.6 -8.85 6.5 -9.5 6.45 Q-8.95 5.7 -6.95 5.75 L-3.5 5.75 Q-3.35 5.75 -0.25 3.95 L3.6 4.8 Q4.65 4.8 6.1 6.15 7.25 7.3 9.4 8.25 L9.85 8.45 M13.1 7.9 Q11.25 7.35 10.05 6.2 L8.1 4.35 M-7.4 -7.55 L-7.2 -7.0 M-7.5 -7.65 L-7.45 -7.6 -7.4 -7.55" fill="none" stroke="#000000" stroke-linecap="round" stroke-linejoin="round" stroke-width="1.0"/>
    </g>
  </defs>
</svg>
