<?xml version="1.0" encoding="UTF-8" standalone="no"?>
<svg xmlns:ffdec="https://www.free-decompiler.com/flash" xmlns:xlink="http://www.w3.org/1999/xlink" ffdec:objectType="frame" height="128.2px" width="108.55px" xmlns="http://www.w3.org/2000/svg">
  <g transform="matrix(1.0, 0.0, 0.0, 1.0, 20.7, 93.65)">
    <use ffdec:characterId="132" height="50.05" transform="matrix(1.0, 0.0, 0.0, 1.0, 20.05, -15.5)" width="57.85" xlink:href="#sprite0"/>
  </g>
  <defs>
    <g id="sprite0">
      <use ffdec:characterId="130" height="42.75" transform="matrix(0.866, 0.5, -0.375, 0.6495, 0.0, -0.05)" width="26.8" xlink:href="#sprite1"/>
    </g>
    <g id="sprite1">
      <use ffdec:characterId="129" height="42.75" transform="matrix(1.0, 0.0, 0.0, 1.0, 0.0, 0.0)" width="26.8" xlink:href="#shape0"/>
    </g>
    <g id="shape0">
      <path d="M9.5 -7.65 L9.5 -17.95 9.5 -19.05 Q9.5 -19.7 9.95 -20.15 10.4 -20.6 11.05 -20.6 L11.1 -20.6 Q11.75 -20.6 12.2 -20.15 12.65 -19.7 12.65 -19.05 L12.65 19.1 Q12.65 19.75 12.2 20.2 11.75 20.65 11.1 20.65 L11.05 20.65 Q10.4 20.65 9.95 20.2 9.5 19.75 9.5 19.1 L9.5 -4.3 9.5 -7.65" fill="#8c5837" fill-rule="evenodd" stroke="none"/>
      <path d="M9.5 -7.65 L9.5 -4.3 Q-1.55 -6.4 -12.65 -4.3 -12.45 -5.95 -11.8 -7.4 -1.0 -9.5 9.5 -7.65" fill="#ffffff" fill-rule="evenodd" stroke="none"/>
      <path d="M9.5 -17.95 L9.5 -7.65 Q-1.0 -9.5 -11.8 -7.4 -8.1 -15.95 9.5 -17.95" fill="#bbbbbb" fill-rule="evenodd" stroke="none"/>
      <path d="M9.5 -17.95 L9.5 -7.65 9.5 -4.3 9.5 19.1 Q9.5 19.75 9.95 20.2 10.4 20.65 11.05 20.65 L11.1 20.65 Q11.75 20.65 12.2 20.2 12.65 19.75 12.65 19.1 L12.65 -19.05 Q12.65 -19.7 12.2 -20.15 11.75 -20.6 11.1 -20.6 L11.05 -20.6 Q10.4 -20.6 9.95 -20.15 9.5 -19.7 9.5 -19.05 L9.5 -17.95 Q-8.1 -15.95 -11.8 -7.4 -12.45 -5.95 -12.65 -4.3 -1.55 -6.4 9.5 -4.3" fill="none" stroke="#000000" stroke-linecap="round" stroke-linejoin="round" stroke-width="1.5"/>
    </g>
  </defs>
</svg>
