<?xml version="1.0" encoding="UTF-8" standalone="no"?>
<svg xmlns:ffdec="https://www.free-decompiler.com/flash" xmlns:xlink="http://www.w3.org/1999/xlink" ffdec:objectType="frame" height="128.2px" width="108.55px" xmlns="http://www.w3.org/2000/svg">
  <g transform="matrix(1.0, 0.0, 0.0, 1.0, 20.7, 93.65)">
    <use ffdec:characterId="110" height="88.95" transform="matrix(1.0, 0.0, 0.0, 1.0, 33.85, -29.35)" width="87.95" xlink:href="#sprite0"/>
  </g>
  <defs>
    <g id="sprite0">
      <filter color-interpolation-filters="sRGB" height="300%" id="filter0" width="300%" x="-100%" y="-100%">
        <feOffset dx="3.5355799791601" dy="3.535487832104965" in="SourceGraphic" result="filterResult0"/>
        <feColorMatrix in="filterResult0" result="filterResult1" type="matrix" values="0 0 0 0 0.0,0 0 0 0 0.0,0 0 0 0 0.0,0 0 0 1.0 0"/>
        <feGaussianBlur in="filterResult1" result="filterResult2" stdDeviation="1.4142135623730951 1.4142135623730951"/>
        <feGaussianBlur in="filterResult2" result="filterResult3" stdDeviation="1.4142135623730951 1.4142135623730951"/>
        <feGaussianBlur in="filterResult3" result="filterResult4" stdDeviation="1.4142135623730951 1.4142135623730951"/>
        <feComposite in="SourceGraphic" in2="filterResult4" operator="over" result="filterResult5"/>
      </filter>
      <use ffdec:characterId="104" filter="url(#filter0)" height="54.95" transform="matrix(0.75, 0.0, 0.0, 0.75, 23.65, -18.95)" width="79.45" xlink:href="#sprite1"/>
    </g>
    <g id="sprite1">
      <use ffdec:characterId="103" height="54.95" transform="matrix(1.0, 0.0, 0.0, 1.0, 0.0, 0.0)" width="79.45" xlink:href="#shape0"/>
    </g>
    <g id="shape0">
      <path d="M-26.4 -12.85 Q-26.6 -13.25 -26.95 -13.25 -27.35 -13.25 -27.75 -12.85 L-28.15 -12.15 -28.2 -11.9 -28.25 -11.75 -28.15 -10.95 -27.55 -10.55 Q-27.2 -10.55 -26.8 -10.95 L-26.4 -11.6 -26.3 -11.9 -26.3 -12.1 -26.4 -12.85 M-32.65 -11.05 Q-32.85 -11.45 -33.2 -11.45 -33.6 -11.45 -34.0 -11.05 L-34.4 -10.35 -34.45 -10.1 -34.5 -9.95 -34.4 -9.15 -33.8 -8.75 -33.05 -9.15 -32.65 -9.8 -32.55 -10.1 -32.55 -10.3 -32.65 -11.05 M-35.1 -13.75 L-35.2 -13.65 -35.6 -13.2 -35.75 -13.0 -35.8 -12.9 -36.05 -12.1 Q-36.1 -11.7 -35.85 -11.6 L-35.2 -11.75 -35.0 -11.9 -34.7 -12.25 -34.55 -12.5 -34.45 -12.7 -34.2 -13.4 -34.45 -13.9 -35.1 -13.75 M-31.55 -14.95 L-31.95 -14.25 -32.0 -14.0 -32.05 -13.85 -31.95 -13.05 -31.35 -12.65 -30.6 -13.05 -30.2 -13.7 -30.1 -14.0 -30.1 -14.2 -30.2 -14.95 -30.75 -15.35 Q-31.15 -15.35 -31.55 -14.95 M-32.5 -18.3 L-32.6 -18.2 -33.0 -17.75 -33.15 -17.55 -33.2 -17.45 -33.45 -16.65 Q-33.5 -16.25 -33.25 -16.15 L-32.6 -16.3 -32.4 -16.45 -32.1 -16.8 -31.95 -17.05 -31.85 -17.25 -31.6 -17.95 -31.85 -18.45 -32.5 -18.3 M-26.4 -17.7 Q-26.6 -18.1 -26.95 -18.1 -27.35 -18.1 -27.75 -17.7 L-28.15 -17.0 -28.2 -16.75 -28.25 -16.6 -28.15 -15.8 -27.55 -15.4 Q-27.2 -15.4 -26.8 -15.8 L-26.4 -16.45 -26.3 -16.75 -26.3 -16.95 -26.4 -17.7 M-29.95 -20.4 L-30.05 -20.25 -30.35 -19.7 -30.4 -19.45 -30.45 -19.3 -30.35 -18.5 -29.75 -18.1 -29.0 -18.5 -28.85 -18.7 -28.6 -19.15 -28.5 -19.45 -28.5 -19.65 -28.6 -20.4 -29.15 -20.8 Q-29.55 -20.8 -29.95 -20.4 M-37.1 -12.65 L-36.8 -13.4 Q-34.1 -19.8 -29.55 -23.65 -25.05 -27.5 -21.35 -26.5 -18.3 -25.7 -17.3 -22.05 L-17.25 -21.85 -16.9 -20.25 Q-16.25 -15.0 -18.9 -8.6 -19.6 -7.0 -20.4 -5.55 L-24.5 -4.55 -24.6 -5.3 Q-24.8 -5.7 -25.15 -5.7 -25.55 -5.7 -25.95 -5.3 L-26.4 -4.35 -26.45 -4.2 Q-30.2 -3.7 -32.65 -4.2 L-32.55 -4.5 -32.55 -4.7 -32.65 -5.45 Q-32.85 -5.85 -33.2 -5.85 -33.6 -5.85 -34.0 -5.45 L-34.4 -4.75 -35.55 -5.45 -35.3 -5.9 -35.2 -6.2 -35.2 -6.4 -35.3 -7.15 Q-35.5 -7.55 -35.85 -7.55 -36.25 -7.55 -36.65 -7.15 L-36.75 -7.0 Q-37.8 -9.1 -37.1 -12.65 M-29.45 -8.25 Q-29.85 -8.25 -30.25 -7.85 L-30.65 -7.15 -30.7 -6.9 -30.75 -6.75 -30.65 -5.95 -30.05 -5.55 Q-29.7 -5.55 -29.3 -5.95 L-28.9 -6.6 -28.8 -6.9 -28.8 -7.1 -28.9 -7.85 Q-29.1 -8.25 -29.45 -8.25 M-22.8 -10.65 Q-23.0 -11.05 -23.35 -11.05 -23.75 -11.05 -24.15 -10.65 L-24.6 -9.7 Q-24.75 -9.15 -24.55 -8.75 L-23.95 -8.35 Q-23.6 -8.35 -23.2 -8.75 -22.85 -9.15 -22.7 -9.7 -22.6 -10.25 -22.8 -10.65 M-21.85 -17.4 Q-22.25 -17.4 -22.65 -17.0 L-23.1 -16.05 Q-23.25 -15.5 -23.05 -15.1 L-22.45 -14.7 Q-22.1 -14.7 -21.7 -15.1 L-21.2 -16.05 Q-21.1 -16.6 -21.3 -17.0 -21.5 -17.4 -21.85 -17.4 M-24.45 -20.2 Q-24.1 -20.2 -23.7 -20.6 L-23.2 -21.55 Q-23.1 -22.1 -23.3 -22.5 -23.5 -22.9 -23.85 -22.9 -24.25 -22.9 -24.65 -22.5 L-25.1 -21.55 Q-25.25 -21.0 -25.05 -20.6 L-24.45 -20.2" fill="#73b4f2" fill-rule="evenodd" stroke="none"/>
      <path d="M-29.95 -20.4 Q-29.55 -20.8 -29.15 -20.8 L-28.6 -20.4 -28.5 -19.65 -28.5 -19.45 -28.6 -19.15 -28.85 -18.7 -29.0 -18.5 -29.75 -18.1 -30.35 -18.5 -30.45 -19.3 -30.4 -19.45 -30.35 -19.7 -30.05 -20.25 -29.95 -20.4 M-26.4 -17.7 L-26.3 -16.95 -26.3 -16.75 -26.4 -16.45 -26.8 -15.8 Q-27.2 -15.4 -27.55 -15.4 L-28.15 -15.8 -28.25 -16.6 -28.2 -16.75 -28.15 -17.0 -27.75 -17.7 Q-27.35 -18.1 -26.95 -18.1 -26.6 -18.1 -26.4 -17.7 M-32.5 -18.3 L-31.85 -18.45 -31.6 -17.95 -31.85 -17.25 -31.95 -17.05 -32.1 -16.8 -32.4 -16.45 -32.6 -16.3 -33.25 -16.15 Q-33.5 -16.25 -33.45 -16.65 L-33.2 -17.45 -33.15 -17.55 -33.0 -17.75 -32.6 -18.2 -32.5 -18.3 M-31.55 -14.95 Q-31.15 -15.35 -30.75 -15.35 L-30.2 -14.95 -30.1 -14.2 -30.1 -14.0 -30.2 -13.7 -30.6 -13.05 -31.35 -12.65 -31.95 -13.05 -32.05 -13.85 -32.0 -14.0 -31.95 -14.25 -31.55 -14.95 M-35.1 -13.75 L-34.45 -13.9 -34.2 -13.4 -34.45 -12.7 -34.55 -12.5 -34.7 -12.25 -35.0 -11.9 -35.2 -11.75 -35.85 -11.6 Q-36.1 -11.7 -36.05 -12.1 L-35.8 -12.9 -35.75 -13.0 -35.6 -13.2 -35.2 -13.65 -35.1 -13.75 M-32.65 -11.05 L-32.55 -10.3 -32.55 -10.1 -32.65 -9.8 -33.05 -9.15 -33.8 -8.75 -34.4 -9.15 -34.5 -9.95 -34.45 -10.1 -34.4 -10.35 -34.0 -11.05 Q-33.6 -11.45 -33.2 -11.45 -32.85 -11.45 -32.65 -11.05 M-26.4 -12.85 L-26.3 -12.1 -26.3 -11.9 -26.4 -11.6 -26.8 -10.95 Q-27.2 -10.55 -27.55 -10.55 L-28.15 -10.95 -28.25 -11.75 -28.2 -11.9 -28.15 -12.15 -27.75 -12.85 Q-27.35 -13.25 -26.95 -13.25 -26.6 -13.25 -26.4 -12.85 M-36.75 -7.0 L-36.65 -7.15 Q-36.25 -7.55 -35.85 -7.55 -35.5 -7.55 -35.3 -7.15 L-35.2 -6.4 -35.2 -6.2 -35.3 -5.9 -35.55 -5.45 -35.7 -5.25 Q-36.1 -4.85 -36.45 -4.85 L-37.05 -5.25 -37.15 -6.05 -37.1 -6.2 -37.05 -6.45 -36.75 -7.0 M-34.4 -4.75 L-34.0 -5.45 Q-33.6 -5.85 -33.2 -5.85 -32.85 -5.85 -32.65 -5.45 L-32.55 -4.7 -32.55 -4.5 -32.65 -4.2 -33.05 -3.55 -33.8 -3.15 -34.4 -3.55 -34.5 -4.35 -34.45 -4.5 -34.4 -4.75 M-26.45 -4.2 L-26.4 -4.35 -25.95 -5.3 Q-25.55 -5.7 -25.15 -5.7 -24.8 -5.7 -24.6 -5.3 L-24.5 -4.55 -24.5 -4.35 -25.0 -3.4 -25.75 -3.0 -26.35 -3.4 -26.45 -4.2 M-36.15 -0.3 L-36.1 -0.45 -35.65 -1.4 Q-35.25 -1.8 -34.85 -1.8 -34.5 -1.8 -34.3 -1.4 L-34.2 -0.65 -34.2 -0.45 -34.7 0.5 Q-35.1 0.9 -35.45 0.9 L-36.05 0.5 -36.15 -0.3 M-29.45 -8.25 Q-29.1 -8.25 -28.9 -7.85 L-28.8 -7.1 -28.8 -6.9 -28.9 -6.6 -29.3 -5.95 Q-29.7 -5.55 -30.05 -5.55 L-30.65 -5.95 -30.75 -6.75 -30.7 -6.9 -30.65 -7.15 -30.25 -7.85 Q-29.85 -8.25 -29.45 -8.25 M-31.5 0.5 L-31.6 -0.3 -31.55 -0.45 -31.1 -1.4 Q-30.7 -1.8 -30.3 -1.8 -29.95 -1.8 -29.75 -1.4 L-29.65 -0.65 -29.65 -0.45 -30.15 0.5 Q-30.55 0.9 -30.9 0.9 L-31.5 0.5 M-24.45 -20.2 L-25.05 -20.6 Q-25.25 -21.0 -25.1 -21.55 L-24.65 -22.5 Q-24.25 -22.9 -23.85 -22.9 -23.5 -22.9 -23.3 -22.5 -23.1 -22.1 -23.2 -21.55 L-23.7 -20.6 Q-24.1 -20.2 -24.45 -20.2 M-21.85 -17.4 Q-21.5 -17.4 -21.3 -17.0 -21.1 -16.6 -21.2 -16.05 L-21.7 -15.1 Q-22.1 -14.7 -22.45 -14.7 L-23.05 -15.1 Q-23.25 -15.5 -23.1 -16.05 L-22.65 -17.0 Q-22.25 -17.4 -21.85 -17.4 M-22.8 -10.65 Q-22.6 -10.25 -22.7 -9.7 -22.85 -9.15 -23.2 -8.75 -23.6 -8.35 -23.95 -8.35 L-24.55 -8.75 Q-24.75 -9.15 -24.6 -9.7 L-24.15 -10.65 Q-23.75 -11.05 -23.35 -11.05 -23.0 -11.05 -22.8 -10.65" fill="#000000" fill-rule="evenodd" stroke="none"/>
      <path d="M-17.25 -21.85 L-12.35 -6.6 -6.75 0.8 Q-3.9 -5.2 -0.75 -7.05 L0.5 -7.5 Q7.15 -9.15 12.2 -7.05 6.3 5.6 6.7 18.2 -3.35 22.35 -12.65 18.5 -12.4 13.85 -10.8 9.95 L-1.8 15.85 -0.15 14.05 Q-7.9 9.35 -15.65 2.3 -19.05 -1.2 -20.4 -5.55 -19.6 -7.0 -18.9 -8.6 -16.25 -15.0 -16.9 -20.25 L-17.25 -21.85 M-32.05 4.65 L-34.4 4.5 Q-38.1 3.5 -38.8 -1.75 -39.45 -6.7 -37.1 -12.65 -37.8 -9.1 -36.75 -7.0 L-37.05 -6.45 -37.1 -6.2 -37.15 -6.05 -37.05 -5.25 -36.45 -4.85 Q-36.1 -4.85 -35.7 -5.25 L-35.55 -5.45 -34.4 -4.75 -34.45 -4.5 -34.5 -4.35 -34.4 -3.55 -33.8 -3.15 -33.05 -3.55 -32.65 -4.2 Q-30.2 -3.7 -26.45 -4.2 L-26.35 -3.4 -25.75 -3.0 -25.0 -3.4 -24.5 -4.35 -24.5 -4.55 -20.4 -5.55 Q-22.75 -1.25 -26.15 1.65 -29.3 4.3 -32.05 4.65 M-36.15 -0.3 L-36.05 0.5 -35.45 0.9 Q-35.1 0.9 -34.7 0.5 L-34.2 -0.45 -34.2 -0.65 -34.3 -1.4 Q-34.5 -1.8 -34.85 -1.8 -35.25 -1.8 -35.65 -1.4 L-36.1 -0.45 -36.15 -0.3 M-31.5 0.5 L-30.9 0.9 Q-30.55 0.9 -30.15 0.5 L-29.65 -0.45 -29.65 -0.65 -29.75 -1.4 Q-29.95 -1.8 -30.3 -1.8 -30.7 -1.8 -31.1 -1.4 L-31.55 -0.45 -31.6 -0.3 -31.5 0.5 M-6.75 0.8 L-1.15 8.2 Q1.75 11.1 -0.15 14.05 1.75 11.1 -1.15 8.2 L-6.75 0.8" fill="#2588eb" fill-rule="evenodd" stroke="none"/>
      <path d="M-19.75 4.1 L-32.05 4.65 Q-29.3 4.3 -26.15 1.65 -22.75 -1.25 -20.4 -5.55 -19.05 -1.2 -15.65 2.3 -17.3 3.65 -19.75 4.1" fill="#126fcb" fill-rule="evenodd" stroke="none"/>
      <path d="M0.5 -7.5 Q5.9 -10.55 13.5 -10.55 L19.0 -10.05 29.05 -13.95 35.35 -13.95 39.0 3.8 32.8 18.4 32.5 13.9 37.0 3.0 34.0 -11.45 30.3 -10.0 24.35 -7.7 24.95 -7.05 12.2 -7.05 Q7.15 -9.15 0.5 -7.5 M19.0 -10.05 Q22.45 -9.4 24.35 -7.7 22.45 -9.4 19.0 -10.05" fill="#a2ccf7" fill-rule="evenodd" stroke="none"/>
      <path d="M12.2 -7.05 L24.95 -7.05 Q27.6 -2.75 29.4 1.7 27.4 23.35 6.7 18.2 6.3 5.6 12.2 -7.05" fill="#1374d2" fill-rule="evenodd" stroke="none"/>
      <path d="M30.3 -10.0 L34.0 -11.45 37.0 3.0 32.9 2.3 30.3 -10.0" fill="#4b9eef" fill-rule="evenodd" stroke="none"/>
      <path d="M37.0 3.0 L32.5 13.9 Q32.05 9.95 30.9 6.05 L32.9 2.3 37.0 3.0" fill="#1062b4" fill-rule="evenodd" stroke="none"/>
      <path d="M32.5 13.9 L32.8 18.4 Q20.1 23.65 7.1 23.5 6.75 20.85 6.7 18.2 27.4 23.35 29.4 1.7 L30.9 6.05 Q32.05 9.95 32.5 13.9" fill="#0f5aa4" fill-rule="evenodd" stroke="none"/>
      <path d="M32.8 18.4 Q32.1 18.8 28.6 23.8 11.45 28.35 -1.8 25.85 2.75 25.7 7.1 23.5 20.1 23.65 32.8 18.4" fill="#0a3d6d" fill-rule="evenodd" stroke="none"/>
      <path d="M-1.8 25.85 Q-7.1 26.05 -12.6 23.5 L-12.65 18.5 Q-3.35 22.35 6.7 18.2 6.75 20.85 7.1 23.5 2.75 25.7 -1.8 25.85 M-10.8 9.95 L-19.75 4.1 Q-17.3 3.65 -15.65 2.3 -7.9 9.35 -0.15 14.05 L-1.8 15.85 -10.8 9.95" fill="#0e559c" fill-rule="evenodd" stroke="none"/>
      <path d="M-37.1 -12.65 L-36.8 -13.4 Q-34.1 -19.8 -29.55 -23.65 -25.05 -27.5 -21.35 -26.5 -18.3 -25.7 -17.3 -22.05 M-32.05 4.65 L-34.4 4.5 Q-38.1 3.5 -38.8 -1.75 -39.45 -6.7 -37.1 -12.65 M-20.4 -5.55 Q-19.6 -7.0 -18.9 -8.6 -16.25 -15.0 -16.9 -20.25 L-17.25 -21.85 M-20.4 -5.55 Q-22.75 -1.25 -26.15 1.65 -29.3 4.3 -32.05 4.65" fill="none" stroke="#000000" stroke-linecap="round" stroke-linejoin="round" stroke-width="1.5"/>
      <path d="M-17.3 -22.05 L-17.25 -21.85 -12.35 -6.6 -6.75 0.8 Q-3.9 -5.2 -0.75 -7.05 L0.5 -7.5 Q5.9 -10.55 13.5 -10.55 L19.0 -10.05 29.05 -13.95 35.35 -13.95 39.0 3.8 32.8 18.4 Q32.1 18.8 28.6 23.8 11.45 28.35 -1.8 25.85 -7.1 26.05 -12.6 23.5 L-12.65 18.5 Q-12.4 13.85 -10.8 9.95 L-19.75 4.1 -32.05 4.65 M24.95 -7.05 L24.35 -7.7 Q22.45 -9.4 19.0 -10.05 M24.35 -7.7 L30.3 -10.0 32.9 2.3 30.9 6.05 29.4 1.7 Q27.6 -2.75 24.95 -7.05 M-0.15 14.05 Q1.75 11.1 -1.15 8.2 L-6.75 0.8 M-10.8 9.95 L-1.8 15.85 -0.15 14.05" fill="none" stroke="#000000" stroke-linecap="round" stroke-linejoin="round" stroke-width="1.5"/>
    </g>
  </defs>
</svg>
