<?xml version="1.0" encoding="UTF-8" standalone="no"?>
<svg xmlns:ffdec="https://www.free-decompiler.com/flash" xmlns:xlink="http://www.w3.org/1999/xlink" ffdec:objectType="frame" height="43.3px" width="81.25px" xmlns="http://www.w3.org/2000/svg">
  <g transform="matrix(1.0, 0.0, 0.0, 1.0, 35.3, 26.75)">
    <use ffdec:characterId="178" height="13.7" transform="matrix(1.0, 0.0, 0.0, 1.0, 0.0, 0.0)" width="19.55" xlink:href="#shape0"/>
  </g>
  <defs>
    <g id="shape0">
      <path d="M0.0 6.05 L1.2 5.9 4.6 5.95 Q7.25 5.75 7.25 6.85 9.4 7.5 9.4 8.1 9.4 9.25 7.85 9.25 L5.3 9.45 3.45 10.35 -0.05 10.45 -3.4 10.2 -4.35 9.1 -8.75 8.9 -8.75 8.0 Q-5.9 6.7 -3.85 6.45 L-3.5 6.45 -2.25 7.75 -2.15 7.5 -1.8 6.75 -1.7 6.75 -1.85 7.5 -1.85 7.6 -1.55 7.35 -0.9 6.75 0.0 6.05" fill="#000000" fill-opacity="0.53333336" fill-rule="evenodd" stroke="none"/>
      <path d="M-1.1 5.35 Q-0.55 3.75 1.2 1.6 3.2 -0.9 4.15 -0.6 L6.15 0.25 Q7.0 1.0 7.0 1.75 L6.6 1.85 5.75 1.65 5.0 1.65 Q3.7 1.65 1.75 2.65 1.45 2.65 1.05 3.4 L0.65 4.2 Q0.45 4.65 -0.15 4.9 -0.9 5.95 -0.9 6.75 L-1.55 7.35 -1.85 7.6 -1.85 7.5 -1.7 6.75 -1.65 6.65 -1.3 5.95 -1.25 5.9 -1.2 5.6 -1.1 5.35 M-9.6 2.25 L-9.65 2.05 Q-9.65 0.95 -8.85 0.75 L-6.7 0.75 -3.6 0.85 -3.35 0.9 Q-2.2 1.3 -1.75 6.3 -3.95 1.8 -6.8 1.8 L-7.15 1.85 -7.45 1.8 Q-9.4 1.7 -9.6 2.25" fill="#25d147" fill-rule="evenodd" stroke="none"/>
      <path d="M-3.6 0.85 Q-4.05 -0.3 -5.0 -0.8 -5.75 -1.2 -5.75 -2.0 L-5.65 -2.75 -5.2 -2.75 Q-2.7 -1.4 -1.8 1.65 -1.35 3.15 -1.1 5.35 L-1.2 5.6 -1.25 5.9 -1.3 5.95 -1.7 6.6 -1.75 6.3 Q-2.2 1.3 -3.35 0.9 L-3.6 0.85" fill="#52e06d" fill-rule="evenodd" stroke="none"/>
      <path d="M7.0 1.75 Q6.95 2.45 6.15 3.15 4.6 3.15 2.25 4.55 L0.0 6.05 -0.9 6.75 Q-0.9 5.95 -0.15 4.9 0.45 4.65 0.65 4.2 L1.05 3.4 Q1.45 2.65 1.75 2.65 3.7 1.65 5.0 1.65 L5.75 1.65 6.6 1.85 7.0 1.75 M-3.5 6.45 Q-4.95 5.15 -6.9 4.35 -9.4 3.4 -9.6 2.25 -9.4 1.7 -7.45 1.8 L-7.4 1.85 -6.8 1.85 -6.8 1.8 Q-3.95 1.8 -1.75 6.3 L-1.7 6.6 -1.8 6.75 -2.15 7.5 -2.25 7.75 -3.5 6.45" fill="#17822d" fill-rule="evenodd" stroke="none"/>
      <path d="M-3.6 0.85 Q-4.05 -0.3 -5.0 -0.8 -5.75 -1.2 -5.75 -2.0 L-5.65 -2.75 -5.2 -2.75 Q-2.7 -1.4 -1.8 1.65 -1.35 3.15 -1.1 5.35 -0.55 3.75 1.2 1.6 3.2 -0.9 4.15 -0.6 L6.15 0.25 Q7.0 1.0 7.0 1.75 6.95 2.45 6.15 3.15 4.6 3.15 2.25 4.55 L0.0 6.05 M-3.5 6.45 Q-4.95 5.15 -6.9 4.35 -9.4 3.4 -9.6 2.25 L-9.65 2.05 Q-9.65 0.95 -8.85 0.75 L-6.7 0.75 -3.6 0.85" fill="none" stroke="#000000" stroke-linecap="round" stroke-linejoin="round" stroke-width="1.0"/>
    </g>
  </defs>
</svg>
