<?xml version="1.0" encoding="UTF-8" standalone="no"?>
<svg xmlns:ffdec="https://www.free-decompiler.com/flash" xmlns:xlink="http://www.w3.org/1999/xlink" ffdec:objectType="frame" height="48.25px" width="89.8px" xmlns="http://www.w3.org/2000/svg">
  <g transform="matrix(1.0, 0.0, 0.0, 1.0, 38.6, 31.7)">
    <use ffdec:characterId="203" height="41.7" transform="matrix(1.0, 0.0, 0.0, 1.0, 0.0, 0.0)" width="89.8" xlink:href="#shape0"/>
    <use ffdec:characterId="205" height="29.55" transform="matrix(0.6247, 0.3607, -0.3607, 0.6247, -9.9, 1.8)" width="27.15" xlink:href="#sprite0"/>
    <use ffdec:characterId="205" height="29.55" transform="matrix(0.253, 0.0, 0.0, 0.253, 2.7, 4.0)" width="27.15" xlink:href="#sprite1"/>
  </g>
  <defs>
    <g id="shape0">
      <path d="M33.5 -19.65 L35.25 -18.1 Q38.35 -15.05 39.4 -11.45 L39.0 -11.6 39.0 -10.6 36.2 -7.9 Q34.15 -6.4 31.5 -6.4 L26.25 -6.8 23.7 -7.2 23.6 -7.3 21.85 -9.5 Q20.15 -11.2 18.15 -11.95 17.0 -13.1 17.0 -16.1 17.0 -19.2 19.4 -19.8 L26.8 -20.0 33.5 -19.65 M25.1 -29.5 L25.2 -28.2 Q25.2 -26.55 22.35 -24.55 19.45 -22.5 17.45 -23.45 L17.2 -23.6 15.2 -23.6 14.85 -23.7 9.6 -24.7 9.55 -24.7 9.65 -24.55 Q9.45 -24.55 8.5 -25.0 7.0 -25.7 6.0 -26.7 L5.25 -26.95 Q4.25 -27.7 4.25 -28.85 4.25 -30.3 7.3 -31.1 L14.05 -31.2 14.9 -31.2 Q21.1 -31.25 23.7 -30.15 24.2 -29.9 24.65 -29.7 L25.1 -29.5 M6.0 -26.8 L6.0 -26.7 6.0 -26.8 Q6.05 -27.1 6.15 -26.8 6.05 -27.1 6.0 -26.8 M6.0 -26.7 L6.15 -26.8 6.0 -26.7 M25.1 2.65 L23.9 5.25 Q22.7 7.4 21.0 7.4 L16.8 6.6 13.7 7.0 Q10.6 7.0 9.25 6.1 7.7 5.0 7.0 2.0 6.55 0.1 5.35 -1.45 4.4 -2.6 4.4 -4.9 4.4 -5.6 5.5 -7.3 6.5 -8.9 7.3 -9.3 L7.35 -9.25 Q8.6 -10.4 10.4 -10.4 17.8 -10.4 24.5 -4.0 L25.1 -3.35 25.25 -1.15 25.1 2.65 M-23.35 -24.95 L-22.25 -25.65 Q-17.75 -28.3 -14.15 -28.35 L-7.15 -26.75 Q-5.3 -26.15 -5.55 -24.8 L-6.05 -23.1 Q-6.3 -22.75 -8.75 -21.5 -7.95 -19.65 -6.55 -18.05 -4.85 -16.0 -3.6 -15.05 -3.3 -13.9 -3.2 -11.8 L-3.15 -10.75 -3.55 -11.7 -3.65 -11.9 Q-5.2 -14.95 -9.5 -18.65 L-9.7 -18.8 -10.0 -19.05 -10.15 -18.8 -10.6 -18.8 Q-11.4 -18.4 -12.4 -18.4 -13.25 -18.4 -14.35 -19.1 -15.5 -19.9 -16.6 -20.0 L-21.0 -20.2 Q-22.5 -20.5 -23.0 -22.3 L-23.35 -24.95 M-32.25 -7.4 Q-31.85 -10.1 -28.6 -13.15 -25.2 -16.35 -23.15 -16.35 L-15.95 -16.35 Q-12.15 -16.4 -13.9 -12.0 L-13.45 -11.4 -14.4 -11.0 -14.8 -11.0 Q-16.0 -9.4 -16.65 -6.5 -17.55 -4.4 -21.2 -4.4 L-23.3 -4.8 Q-24.05 -4.8 -25.4 -3.8 -26.7 -2.8 -29.3 -2.8 L-31.45 -3.4 Q-32.3 -4.75 -32.3 -6.7 L-32.25 -7.4" fill="#25c945" fill-rule="evenodd" stroke="none"/>
      <path d="M25.1 -29.5 L26.9 -28.4 Q27.6 -27.8 27.6 -26.55 27.6 -25.5 26.5 -24.15 25.7 -23.15 25.15 -22.9 L24.95 -22.9 23.25 -23.0 Q19.8 -23.0 16.7 -21.2 L14.6 -19.65 Q10.55 -19.8 10.55 -21.8 L9.95 -23.35 9.45 -22.85 8.7 -24.8 9.4 -24.55 9.65 -24.55 9.55 -24.7 9.6 -24.7 14.85 -23.7 15.2 -23.6 17.2 -23.6 17.45 -23.45 Q19.45 -22.5 22.35 -24.55 25.2 -26.55 25.2 -28.2 L25.1 -29.5 M7.3 -9.3 Q6.5 -8.9 5.5 -7.3 4.4 -5.6 4.4 -4.9 4.4 -2.6 5.35 -1.45 6.55 0.1 7.0 2.0 7.7 5.0 9.25 6.1 10.6 7.0 13.7 7.0 L16.8 6.6 21.0 7.4 Q22.7 7.4 23.9 5.25 L25.1 2.65 Q24.85 5.2 24.25 6.35 23.0 8.75 19.0 8.8 15.75 7.85 14.0 7.8 L11.85 7.75 Q8.95 6.75 6.6 4.85 1.75 0.9 1.75 -4.75 1.75 -7.7 3.6 -9.35 5.5 -11.05 7.3 -9.3 M23.7 -7.2 L26.25 -6.8 31.5 -6.4 Q34.15 -6.4 36.2 -7.9 L39.0 -10.6 39.0 -11.6 39.4 -11.45 Q39.9 -9.7 39.9 -7.8 39.9 -4.15 34.9 -4.05 30.15 -4.5 29.9 -4.1 L29.85 -4.1 24.85 -4.5 Q24.45 -5.95 23.7 -7.2 M-13.45 -11.4 L-13.35 -11.25 Q-13.15 -10.3 -12.55 -9.45 L-12.9 -9.5 -12.9 -9.45 -12.9 -6.55 Q-15.9 -2.4 -17.85 -1.45 -19.5 -0.65 -24.3 -0.65 -29.7 -0.65 -31.45 -3.4 L-29.3 -2.8 Q-26.7 -2.8 -25.4 -3.8 -24.05 -4.8 -23.3 -4.8 L-21.2 -4.4 Q-17.55 -4.4 -16.65 -6.5 -16.0 -9.4 -14.8 -11.0 L-14.4 -11.0 -13.45 -11.4 M-10.15 -18.8 L-11.0 -17.55 -20.9 -16.6 Q-21.55 -16.6 -23.95 -17.85 -26.9 -19.3 -26.9 -20.65 -26.9 -22.65 -23.35 -24.95 L-23.0 -22.3 Q-22.5 -20.5 -21.0 -20.2 L-16.6 -20.0 Q-15.5 -19.9 -14.35 -19.1 -13.25 -18.4 -12.4 -18.4 -11.4 -18.4 -10.6 -18.8 L-10.15 -18.8" fill="#1b8f32" fill-rule="evenodd" stroke="none"/>
      <path d="M25.15 -22.9 Q29.8 -22.45 33.5 -19.65 L26.8 -20.0 19.4 -19.8 Q17.0 -19.2 17.0 -16.1 17.0 -13.1 18.15 -11.95 16.4 -12.65 14.45 -12.65 L14.4 -12.65 14.45 -12.65 Q16.4 -12.65 18.15 -11.95 20.15 -11.2 21.85 -9.5 L23.6 -7.3 23.6 -7.2 23.7 -7.2 Q24.45 -5.95 24.85 -4.5 L25.1 -3.35 24.5 -4.0 Q17.8 -10.4 10.4 -10.4 8.6 -10.4 7.35 -9.25 L7.5 -9.35 10.7 -11.2 Q13.5 -12.6 14.4 -12.65 L14.25 -12.9 14.25 -13.15 14.05 -13.5 12.8 -15.85 12.25 -16.85 Q12.25 -17.3 13.25 -17.55 L13.3 -17.65 Q13.55 -18.7 14.6 -19.65 L16.7 -21.2 Q19.8 -23.0 23.25 -23.0 L24.95 -22.9 24.95 -22.85 25.15 -22.9 M-0.45 -15.5 L-0.45 -8.05 Q-0.75 -10.25 -2.8 -13.8 L-2.9 -21.0 Q-2.6 -22.8 -2.05 -23.4 -0.9 -24.7 -0.5 -28.65 0.05 -21.85 -0.6 -20.3 -1.3 -18.75 -1.0 -17.1 -0.7 -15.6 -0.45 -15.5" fill="#7ee793" fill-rule="evenodd" stroke="none"/>
      <path d="M8.7 -24.8 L9.45 -22.85 Q8.55 -22.1 7.45 -21.8 3.55 -20.7 3.05 -18.05 L2.05 -13.2 Q3.05 -14.55 5.3 -15.95 8.55 -18.0 10.55 -18.0 L12.25 -17.9 13.3 -17.65 13.25 -17.55 Q12.25 -17.3 12.25 -16.85 L12.8 -15.85 Q8.7 -15.7 5.0 -13.25 3.75 -12.4 2.25 -9.45 L2.05 -8.05 Q0.65 -7.25 0.35 -6.6 0.2 -6.15 0.2 -4.2 0.2 -1.9 0.7 1.15 L0.3 1.3 Q-0.35 0.1 -1.0 -0.5 -0.35 0.1 0.3 1.3 L-0.8 1.35 -0.9 1.35 -1.1 0.65 -0.9 1.35 -1.2 1.35 -1.1 0.65 -1.0 -0.5 -0.45 -6.6 -0.45 -8.05 -0.45 -15.5 Q0.45 -15.5 0.55 -18.3 L2.85 -21.5 Q3.9 -23.05 5.35 -23.2 L6.9 -23.35 Q7.65 -23.35 8.7 -24.8 M-13.35 -11.25 L-12.9 -10.5 -11.2 -11.35 -10.8 -11.65 Q-6.05 -11.25 -2.15 -2.15 L-2.1 -2.15 -2.0 -1.65 -2.05 -1.2 -2.15 -0.75 -2.5 0.35 -3.4 -1.3 Q-7.65 -9.1 -12.55 -9.45 -13.15 -10.3 -13.35 -11.25 M-3.4 -1.3 L-3.15 -1.3 -2.15 -0.75 -3.15 -1.3 -3.4 -1.3 M-2.35 -1.25 L-2.05 -1.2 -2.35 -1.25" fill="#0f4f1c" fill-rule="evenodd" stroke="none"/>
      <path d="M39.4 -11.45 Q45.45 -9.6 46.8 -7.0 47.1 -6.4 49.4 -3.75 51.2 -1.65 51.2 -0.4 51.2 2.75 41.4 6.4 31.75 10.0 24.0 10.0 L19.5 8.95 19.0 8.8 Q23.0 8.75 24.25 6.35 24.85 5.2 25.1 2.65 L25.25 -1.15 25.1 -3.35 24.85 -4.5 29.85 -4.1 30.5 -4.1 29.9 -4.1 Q30.15 -4.5 34.9 -4.05 39.9 -4.15 39.9 -7.8 39.9 -9.7 39.4 -11.45 M11.85 7.75 L5.4 7.6 Q4.85 6.75 4.5 6.75 L4.0 6.75 4.2 7.6 3.85 7.6 3.65 7.4 3.1 6.8 2.8 6.85 2.65 7.6 2.6 7.6 2.2 7.6 0.0 7.3 0.25 7.05 -0.9 6.8 Q-1.1 6.8 -1.2 6.95 -3.2 6.3 -5.8 5.0 -8.45 3.55 -12.65 3.05 L-13.1 2.75 Q-12.25 2.6 -12.25 2.4 -12.25 1.9 -13.25 1.8 -13.75 1.95 -13.75 2.7 L-13.75 2.95 -15.35 2.85 -16.8 2.8 Q-17.1 2.4 -17.55 2.35 L-17.75 2.1 Q-18.35 2.1 -18.35 2.65 L-18.35 2.8 -26.9 2.4 -29.0 2.8 Q-32.7 2.8 -35.8 0.6 -38.6 -1.4 -38.6 -3.2 -38.6 -3.7 -37.1 -5.2 -35.4 -6.95 -34.0 -7.4 L-32.25 -7.4 -32.3 -6.7 Q-32.3 -4.75 -31.45 -3.4 -29.7 -0.65 -24.3 -0.65 -19.5 -0.65 -17.85 -1.45 -15.9 -2.4 -12.9 -6.55 L-12.9 -9.45 -12.55 -9.45 Q-7.65 -9.1 -3.4 -1.3 L-7.45 -1.4 Q-9.85 -1.4 -11.5 -0.4 L-15.35 2.85 -11.5 -0.4 Q-9.85 -1.4 -7.45 -1.4 L-3.4 -1.3 -2.5 0.35 -2.15 1.1 -1.2 1.35 -0.9 1.35 -0.8 1.35 0.3 1.3 0.7 1.15 Q0.2 -1.9 0.2 -4.2 0.2 -6.15 0.35 -6.6 0.65 -7.25 2.05 -8.05 L2.25 -9.45 Q3.75 -12.4 5.0 -13.25 8.7 -15.7 12.8 -15.85 L14.05 -13.5 14.25 -13.15 14.25 -12.9 14.4 -12.65 Q13.5 -12.6 10.7 -11.2 L7.5 -9.35 7.3 -9.3 Q5.5 -11.05 3.6 -9.35 1.75 -7.7 1.75 -4.75 1.75 0.9 6.6 4.85 8.95 6.75 11.85 7.75 M1.5 5.85 L0.55 4.75 -0.5 5.0 -0.5 5.55 Q0.2 6.25 1.15 6.25 L1.5 5.85 M4.6 4.85 L3.35 4.75 3.05 4.75 Q3.45 5.5 3.25 6.05 L6.0 6.25 6.3 5.85 4.3 5.5 4.6 4.85 M2.6 7.6 Q2.6 5.8 1.0 2.55 L0.3 1.3 1.0 2.55 Q2.6 5.8 2.6 7.6 M-10.8 -11.65 L-3.65 -11.9 -3.55 -11.7 -3.15 -10.75 Q-1.95 -7.65 -2.1 -2.95 L-2.15 -2.35 -2.15 -2.15 Q-6.05 -11.25 -10.8 -11.65 M-15.3 -0.05 L-16.1 -0.75 Q-16.65 -0.55 -16.65 0.5 -16.65 1.15 -16.3 1.4 L-15.85 1.3 -15.8 1.05 Q-15.8 0.45 -15.3 -0.05 M-15.25 -1.25 L-15.75 -1.25 Q-15.75 -0.85 -15.15 -0.4 L-14.85 -0.75 -15.25 -1.25 M-16.85 2.6 L-16.55 2.3 -17.15 2.15 -16.85 2.6" fill="#000000" fill-opacity="0.53333336" fill-rule="evenodd" stroke="none"/>
      <path d="M-16.85 2.6 L-17.15 2.15 -16.55 2.3 -16.85 2.6 M-18.35 3.85 L-17.75 4.0 -18.05 4.25 -18.35 3.85 M-17.15 3.6 L-16.55 3.75 -16.85 4.05 -17.15 3.6" fill="#ffffff" fill-rule="evenodd" stroke="none"/>
      <path d="M-0.45 -8.05 L-0.45 -6.6 -1.0 -0.5 Q-1.55 -1.05 -2.05 -1.2 -1.55 -1.05 -1.0 -0.5 L-1.1 0.65 -1.2 1.35 -2.15 1.1 -2.5 0.35 -2.15 -0.75 -2.05 -1.2 -2.0 -1.65 -2.1 -2.15 -2.15 -2.35 -2.1 -2.95 Q-1.95 -7.65 -3.15 -10.75 L-3.2 -11.8 Q-3.3 -13.9 -3.6 -15.05 L-3.35 -14.9 Q-3.3 -18.85 -2.9 -21.0 L-2.8 -13.8 Q-0.75 -10.25 -0.45 -8.05 M-2.15 -0.75 L-1.1 0.65 -2.15 -0.75" fill="#136423" fill-rule="evenodd" stroke="none"/>
      <path d="M25.1 -29.5 L26.9 -28.4 Q27.6 -27.8 27.6 -26.55 27.6 -25.5 26.5 -24.15 25.7 -23.15 25.15 -22.9 29.8 -22.45 33.5 -19.65 L35.25 -18.1 Q38.35 -15.05 39.4 -11.45 39.9 -9.7 39.9 -7.8 39.9 -4.15 34.9 -4.05 30.15 -4.5 29.9 -4.1 L30.5 -4.1 29.85 -4.1 24.85 -4.5 25.1 -3.35 25.25 -1.15 25.1 2.65 Q24.85 5.2 24.25 6.35 23.0 8.75 19.0 8.8 L18.75 8.8 Q15.0 8.8 11.85 7.75 8.95 6.75 6.6 4.85 1.75 0.9 1.75 -4.75 1.75 -7.7 3.6 -9.35 5.5 -11.05 7.3 -9.3 L7.35 -9.25 7.5 -9.35 10.7 -11.2 Q13.5 -12.6 14.4 -12.65 L14.45 -12.65 Q16.4 -12.65 18.15 -11.95 20.15 -11.2 21.85 -9.5 L23.6 -7.3 23.7 -7.2 Q24.45 -5.95 24.85 -4.5 M-15.35 2.85 L-15.85 3.3 M24.65 -29.7 Q24.2 -29.9 23.7 -30.15 21.1 -31.25 14.9 -31.2 L14.05 -31.2 7.3 -31.1 Q4.25 -30.3 4.25 -28.85 4.25 -27.7 5.25 -26.95 L6.0 -26.7 6.0 -26.8 M6.15 -26.8 L6.0 -26.7 Q7.0 -25.7 8.5 -25.0 M9.45 -22.85 L9.95 -23.35 10.55 -21.8 Q10.55 -19.8 14.6 -19.65 L16.7 -21.2 Q19.8 -23.0 23.25 -23.0 L24.95 -22.9 25.15 -22.9 24.95 -22.85 24.95 -22.9 M13.3 -17.65 L12.25 -17.9 13.3 -17.65 13.25 -17.55 Q12.25 -17.3 12.25 -16.85 L12.8 -15.85 14.05 -13.5 14.25 -13.15 14.25 -12.9 M9.45 -22.85 Q8.55 -22.1 7.45 -21.8 3.55 -20.7 3.05 -18.05 L2.05 -13.2 Q3.05 -14.55 5.3 -15.95 8.55 -18.0 10.55 -18.0 L12.25 -17.9 M13.3 -17.65 Q13.55 -18.7 14.6 -19.65 M8.7 -24.8 Q7.65 -23.35 6.9 -23.35 L5.35 -23.2 Q3.9 -23.05 2.85 -21.5 L0.55 -18.3 Q0.45 -15.5 -0.45 -15.5 -0.7 -15.6 -1.0 -17.1 -1.3 -18.75 -0.6 -20.3 0.05 -21.85 -0.5 -28.65 -0.9 -24.7 -2.05 -23.4 -2.6 -22.8 -2.9 -21.0 -3.3 -18.85 -3.35 -14.9 L-3.6 -15.05 Q-4.85 -16.0 -6.55 -18.05 -7.95 -19.65 -8.75 -21.5 -6.3 -22.75 -6.05 -23.1 L-5.55 -24.8 Q-5.3 -26.15 -7.15 -26.75 L-14.15 -28.35 Q-17.75 -28.3 -22.25 -25.65 L-23.35 -24.95 Q-26.9 -22.65 -26.9 -20.65 -26.9 -19.3 -23.95 -17.85 -21.55 -16.6 -20.9 -16.6 L-11.0 -17.55 -10.15 -18.8 -10.0 -19.05 -9.7 -18.8 M-1.0 -0.5 Q-0.35 0.1 0.3 1.3 L0.7 1.15 Q0.2 -1.9 0.2 -4.2 0.2 -6.15 0.35 -6.6 0.65 -7.25 2.05 -8.05 L2.25 -9.45 Q3.75 -12.4 5.0 -13.25 8.7 -15.7 12.8 -15.85 M29.9 -4.1 L29.85 -4.1 M0.3 1.3 L1.0 2.55 Q2.6 5.8 2.6 7.6 M-32.25 -7.4 Q-31.85 -10.1 -28.6 -13.15 -25.2 -16.35 -23.15 -16.35 L-15.95 -16.35 Q-12.15 -16.4 -13.9 -12.0 L-13.45 -11.4 -13.35 -11.25 -12.9 -10.5 -11.2 -11.35 M-3.65 -11.9 Q-5.2 -14.95 -9.5 -18.65 M-31.45 -3.4 Q-32.3 -4.75 -32.3 -6.7 L-32.25 -7.4 M-15.35 2.85 L-11.5 -0.4 Q-9.85 -1.4 -7.45 -1.4 L-3.4 -1.3 Q-7.65 -9.1 -12.55 -9.45 L-12.9 -9.5 -12.9 -9.45 -12.9 -6.55 Q-15.9 -2.4 -17.85 -1.45 -19.5 -0.65 -24.3 -0.65 -29.7 -0.65 -31.45 -3.4 M-3.15 -10.75 L-3.55 -11.7 -3.65 -11.9 M-2.15 -0.75 L-3.15 -1.3 -3.4 -1.3 -2.5 0.35 -2.15 1.1 -1.2 1.35 -0.9 1.35 -0.8 1.35 0.3 1.3 M-2.05 -1.2 L-2.35 -1.25 M-2.15 -2.35 L-2.15 -2.15 Q-6.05 -11.25 -10.8 -11.65 M-2.05 -1.2 Q-1.55 -1.05 -1.0 -0.5 M-1.1 0.65 L-0.9 1.35 M-2.1 -2.95 Q-1.95 -7.65 -3.15 -10.75 M-1.1 0.65 L-2.15 -0.75" fill="none" stroke="#000000" stroke-linecap="round" stroke-linejoin="round" stroke-width="1.0"/>
      <path d="M6.0 -26.8 Q6.05 -27.1 6.15 -26.8 M-11.2 -11.35 L-10.8 -11.65 -3.65 -11.9" ffdec:has-small-stroke="true" ffdec:original-stroke-width="0.05" fill="none" stroke="#000000" stroke-linecap="round" stroke-linejoin="round" stroke-width="1.0"/>
    </g>
    <g id="sprite0">
      <use ffdec:characterId="204" height="29.55" transform="matrix(1.0, 0.0, 0.0, 1.0, 0.0, 0.0)" width="27.15" xlink:href="#shape1"/>
    </g>
    <g id="shape1">
      <path d="M8.65 -10.5 L6.9 -10.85 5.4 -11.35 Q6.1 -9.8 6.3 -8.05 L6.35 -6.7 Q6.15 -6.7 4.95 -7.4 L3.9 -8.05 1.6 -9.0 Q-0.9 -10.15 -2.1 -11.35 -2.25 -10.75 -4.55 -6.45 L-5.45 -9.9 -5.65 -9.9 -7.35 -8.75 -8.2 -8.35 -9.7 -8.05 -10.85 -8.2 -11.5 -8.35 -9.1 -11.9 Q-7.55 -14.1 -2.0 -14.25 3.55 -14.4 6.0 -12.55 L8.65 -10.5" fill="#29a81c" fill-rule="evenodd" stroke="none"/>
      <path d="M6.9 -10.85 L8.65 -10.5 Q12.25 -7.0 12.95 -2.1 L13.05 -0.4 12.45 -1.1 Q12.45 -2.05 6.9 -10.85" fill="#aa0000" fill-rule="evenodd" stroke="none"/>
      <path d="M6.3 -8.05 Q6.1 -9.8 5.4 -11.35 L6.9 -10.85 Q12.45 -2.05 12.45 -1.1 L13.05 -0.4 Q12.95 3.5 9.75 7.85 10.1 6.65 10.1 4.35 10.1 1.1 8.6 -3.5 7.25 -7.5 6.3 -8.05" fill="#dd0000" fill-rule="evenodd" stroke="none"/>
      <path d="M-11.5 -8.35 L-10.85 -8.2 Q-11.65 -5.25 -11.65 -2.25 -11.65 3.0 -8.85 6.7 -5.95 10.5 -1.7 10.5 L-0.65 10.3 Q6.35 10.3 6.35 -0.55 L6.1 -4.5 4.95 -7.4 Q6.15 -6.7 6.35 -6.7 L6.3 -8.05 Q7.25 -7.5 8.6 -3.5 10.1 1.1 10.1 4.35 10.1 6.65 9.75 7.85 L8.9 8.9 8.9 8.95 Q4.1 14.7 -0.7 14.25 -5.5 13.8 -9.15 8.55 -12.85 3.3 -13.1 -1.95 -13.25 -5.5 -11.5 -8.35" fill="#ff1111" fill-rule="evenodd" stroke="none"/>
      <path d="M-10.85 -8.2 L-9.7 -8.05 -8.2 -8.35 -9.05 -7.4 Q-9.55 -6.55 -9.55 -4.35 -9.55 -1.0 -7.75 1.0 -5.95 3.0 -2.95 3.0 3.7 3.0 3.7 -4.65 3.7 -7.75 1.6 -9.0 L3.9 -8.05 4.95 -7.4 6.1 -4.5 6.35 -0.55 Q6.35 10.3 -0.65 10.3 L-1.7 10.5 Q-5.95 10.5 -8.85 6.7 -11.65 3.0 -11.65 -2.25 -11.65 -5.25 -10.85 -8.2" fill="#ff3333" fill-rule="evenodd" stroke="none"/>
      <path d="M-8.2 -8.35 L-7.35 -8.75 -5.65 -9.9 -5.45 -9.9 -4.55 -6.45 Q-2.25 -10.75 -2.1 -11.35 -0.9 -10.15 1.6 -9.0 3.7 -7.75 3.7 -4.65 3.7 3.0 -2.95 3.0 -5.95 3.0 -7.75 1.0 -9.55 -1.0 -9.55 -4.35 -9.55 -6.55 -9.05 -7.4 L-8.2 -8.35" fill="#ff7777" fill-rule="evenodd" stroke="none"/>
      <path d="M8.65 -10.5 L6.0 -12.55 Q3.55 -14.4 -2.0 -14.25 -7.55 -14.1 -9.1 -11.9 L-11.5 -8.35 Q-13.25 -5.5 -13.1 -1.95 -12.85 3.3 -9.15 8.55 -5.5 13.8 -0.7 14.25 4.1 14.7 8.9 8.95 L8.9 8.9 9.75 7.85 Q12.95 3.5 13.05 -0.4 L12.95 -2.1 Q12.25 -7.0 8.65 -10.5 Z" ffdec:has-small-stroke="true" ffdec:original-stroke-width="1.0" fill="none" stroke="#000000" stroke-linecap="round" stroke-linejoin="round" stroke-width="1.3862480011239589"/>
      <path d="M7.5 -5.75 Q7.5 -4.4 5.95 -4.4 4.2 -4.4 4.4 -5.7 4.4 -7.1 5.95 -7.1 7.5 -7.1 7.5 -5.75 M9.3 -1.4 Q9.3 -0.05 7.95 -0.05 6.65 -0.05 6.65 -1.35 6.65 -2.8 7.95 -2.8 9.45 -2.8 9.3 -1.4 M11.55 5.1 Q11.55 6.4 10.15 6.4 9.1 6.4 8.85 5.8 L8.8 5.15 Q8.8 3.7 10.15 3.7 11.55 3.7 11.55 5.1 M3.85 5.5 Q3.85 6.8 2.5 6.8 0.95 6.8 1.15 5.55 1.15 4.05 2.5 4.05 3.85 4.05 3.85 5.5 M-10.75 -1.75 L-10.6 -1.0 Q-10.6 0.25 -11.95 0.25 -13.3 0.25 -13.3 -0.95 -13.3 -2.45 -11.95 -2.45 -11.05 -2.45 -10.75 -1.75 M-6.2 -6.85 Q-6.2 -5.5 -7.6 -5.5 -8.95 -5.5 -8.95 -6.8 -8.95 -8.2 -7.6 -8.2 -6.2 -8.2 -6.2 -6.85 M-2.45 -4.95 Q-2.45 -6.4 -1.05 -6.4 0.25 -6.4 0.25 -5.0 0.25 -3.65 -1.05 -3.65 -2.5 -3.65 -2.45 -4.95 M-7.1 1.1 Q-7.1 -0.2 -5.75 -0.2 -4.55 -0.2 -4.4 1.05 -4.4 2.45 -5.75 2.45 -7.1 2.45 -7.1 1.1 M-7.15 5.5 L-7.0 6.2 Q-7.0 7.5 -8.3 7.5 -10.0 7.5 -9.65 6.25 -9.65 4.8 -8.3 4.8 -7.45 4.8 -7.15 5.5 M-1.65 10.2 Q-1.65 8.8 -0.35 8.8 1.05 8.8 0.95 10.15 0.95 11.55 -0.35 11.55 -1.65 11.55 -1.65 10.2" fill="#febcbc" fill-rule="evenodd" stroke="none"/>
    </g>
    <g id="sprite1">
      <use ffdec:characterId="204" height="29.55" transform="matrix(1.0, 0.0, 0.0, 1.0, 0.0, 0.0)" width="27.15" xlink:href="#shape2"/>
    </g>
    <g id="shape2">
      <path d="M8.65 -10.5 L6.9 -10.85 5.4 -11.35 Q6.1 -9.8 6.3 -8.05 L6.35 -6.7 Q6.15 -6.7 4.95 -7.4 L3.9 -8.05 1.6 -9.0 Q-0.9 -10.15 -2.1 -11.35 -2.25 -10.75 -4.55 -6.45 L-5.45 -9.9 -5.65 -9.9 -7.35 -8.75 -8.2 -8.35 -9.7 -8.05 -10.85 -8.2 -11.5 -8.35 -9.1 -11.9 Q-7.55 -14.1 -2.0 -14.25 3.55 -14.4 6.0 -12.55 L8.65 -10.5" fill="#29a81c" fill-rule="evenodd" stroke="none"/>
      <path d="M6.9 -10.85 L8.65 -10.5 Q12.25 -7.0 12.95 -2.1 L13.05 -0.4 12.45 -1.1 Q12.45 -2.05 6.9 -10.85" fill="#aa0000" fill-rule="evenodd" stroke="none"/>
      <path d="M6.3 -8.05 Q6.1 -9.8 5.4 -11.35 L6.9 -10.85 Q12.45 -2.05 12.45 -1.1 L13.05 -0.4 Q12.95 3.5 9.75 7.85 10.1 6.65 10.1 4.35 10.1 1.1 8.6 -3.5 7.25 -7.5 6.3 -8.05" fill="#dd0000" fill-rule="evenodd" stroke="none"/>
      <path d="M-11.5 -8.35 L-10.85 -8.2 Q-11.65 -5.25 -11.65 -2.25 -11.65 3.0 -8.85 6.7 -5.95 10.5 -1.7 10.5 L-0.65 10.3 Q6.35 10.3 6.35 -0.55 L6.1 -4.5 4.95 -7.4 Q6.15 -6.7 6.35 -6.7 L6.3 -8.05 Q7.25 -7.5 8.6 -3.5 10.1 1.1 10.1 4.35 10.1 6.65 9.75 7.85 L8.9 8.9 8.9 8.95 Q4.1 14.7 -0.7 14.25 -5.5 13.8 -9.15 8.55 -12.85 3.3 -13.1 -1.95 -13.25 -5.5 -11.5 -8.35" fill="#ff1111" fill-rule="evenodd" stroke="none"/>
      <path d="M-10.85 -8.2 L-9.7 -8.05 -8.2 -8.35 -9.05 -7.4 Q-9.55 -6.55 -9.55 -4.35 -9.55 -1.0 -7.75 1.0 -5.95 3.0 -2.95 3.0 3.7 3.0 3.7 -4.65 3.7 -7.75 1.6 -9.0 L3.9 -8.05 4.95 -7.4 6.1 -4.5 6.35 -0.55 Q6.35 10.3 -0.65 10.3 L-1.7 10.5 Q-5.95 10.5 -8.85 6.7 -11.65 3.0 -11.65 -2.25 -11.65 -5.25 -10.85 -8.2" fill="#ff3333" fill-rule="evenodd" stroke="none"/>
      <path d="M-8.2 -8.35 L-7.35 -8.75 -5.65 -9.9 -5.45 -9.9 -4.55 -6.45 Q-2.25 -10.75 -2.1 -11.35 -0.9 -10.15 1.6 -9.0 3.7 -7.75 3.7 -4.65 3.7 3.0 -2.95 3.0 -5.95 3.0 -7.75 1.0 -9.55 -1.0 -9.55 -4.35 -9.55 -6.55 -9.05 -7.4 L-8.2 -8.35" fill="#ff7777" fill-rule="evenodd" stroke="none"/>
      <path d="M8.65 -10.5 L6.0 -12.55 Q3.55 -14.4 -2.0 -14.25 -7.55 -14.1 -9.1 -11.9 L-11.5 -8.35 Q-13.25 -5.5 -13.1 -1.95 -12.85 3.3 -9.15 8.55 -5.5 13.8 -0.7 14.25 4.1 14.7 8.9 8.95 L8.9 8.9 9.75 7.85 Q12.95 3.5 13.05 -0.4 L12.95 -2.1 Q12.25 -7.0 8.65 -10.5 Z" ffdec:has-small-stroke="true" ffdec:original-stroke-width="1.0" fill="none" stroke="#000000" stroke-linecap="round" stroke-linejoin="round" stroke-width="3.9529525303094277"/>
      <path d="M7.5 -5.75 Q7.5 -4.4 5.95 -4.4 4.2 -4.4 4.4 -5.7 4.4 -7.1 5.95 -7.1 7.5 -7.1 7.5 -5.75 M9.3 -1.4 Q9.3 -0.05 7.95 -0.05 6.65 -0.05 6.65 -1.35 6.65 -2.8 7.95 -2.8 9.45 -2.8 9.3 -1.4 M11.55 5.1 Q11.55 6.4 10.15 6.4 9.1 6.4 8.85 5.8 L8.8 5.15 Q8.8 3.7 10.15 3.7 11.55 3.7 11.55 5.1 M3.85 5.5 Q3.85 6.8 2.5 6.8 0.95 6.8 1.15 5.55 1.15 4.05 2.5 4.05 3.85 4.05 3.85 5.5 M-10.75 -1.75 L-10.6 -1.0 Q-10.6 0.25 -11.95 0.25 -13.3 0.25 -13.3 -0.95 -13.3 -2.45 -11.95 -2.45 -11.05 -2.45 -10.75 -1.75 M-6.2 -6.85 Q-6.2 -5.5 -7.6 -5.5 -8.95 -5.5 -8.95 -6.8 -8.95 -8.2 -7.6 -8.2 -6.2 -8.2 -6.2 -6.85 M-2.45 -4.95 Q-2.45 -6.4 -1.05 -6.4 0.25 -6.4 0.25 -5.0 0.25 -3.65 -1.05 -3.65 -2.5 -3.65 -2.45 -4.95 M-7.1 1.1 Q-7.1 -0.2 -5.75 -0.2 -4.55 -0.2 -4.4 1.05 -4.4 2.45 -5.75 2.45 -7.1 2.45 -7.1 1.1 M-7.15 5.5 L-7.0 6.2 Q-7.0 7.5 -8.3 7.5 -10.0 7.5 -9.65 6.25 -9.65 4.8 -8.3 4.8 -7.45 4.8 -7.15 5.5 M-1.65 10.2 Q-1.65 8.8 -0.35 8.8 1.05 8.8 0.95 10.15 0.95 11.55 -0.35 11.55 -1.65 11.55 -1.65 10.2" fill="#febcbc" fill-rule="evenodd" stroke="none"/>
    </g>
  </defs>
</svg>
